<svg width="51" height="67" viewBox="0 0 51 67" fill="none" xmlns="http://www.w3.org/2000/svg">
<path
    d="M48.8926 24.9443L46.8915 23.7714L47.7886 23.0124C48.5476 22.3914 48.9615 21.4946 48.9615 20.5285V14.8014C48.9615 13.6974 48.3405 12.6624 47.4436 12.1103L29.2966 1.20832C28.1237 0.518323 26.6745 0.587265 25.6395 1.48437L1.9035 20.5974C1.14456 21.2184 0.730616 22.1153 0.730616 23.0813V28.8084C0.730616 29.9124 1.35167 30.9474 2.2485 31.5684L4.24956 32.7413L3.35244 33.4313C2.5935 34.0524 2.17956 34.9492 2.17956 35.9153V41.6424C2.17956 42.7463 2.80062 43.7813 3.76667 44.4024L1.48956 46.8174C0.799558 47.5074 0.454558 48.4734 0.592443 49.4395L1.28244 55.0974C1.42035 56.2013 2.11033 57.1674 3.14533 57.5813L21.7063 65.8613C22.2584 66.1374 22.8792 66.2753 23.5003 66.2753C24.6732 66.2753 25.8463 65.7924 26.6742 64.9642L47.3052 43.6432C47.9952 42.9532 48.2713 41.9872 48.2023 41.0211L47.7194 37.1572L49.3065 35.915C50.0655 35.294 50.4794 34.3972 50.4794 33.4311V27.704C50.4102 26.5313 49.8584 25.5653 48.8923 24.9442L48.8926 24.9443ZM23.5696 10.5923L26.8817 7.97015C27.2956 7.62515 27.9167 7.5562 28.3996 7.9012L37.9216 13.6281C38.7494 14.111 38.8187 15.2152 38.0595 15.836L34.7474 18.4581C34.3334 18.8031 33.7124 18.872 33.2295 18.596L23.7075 12.8C22.9485 12.3171 22.8794 11.2129 23.5693 10.5921L23.5696 10.5923ZM3.62856 29.3603C3.42147 29.2913 3.35251 29.0842 3.35251 28.8082V24.4611L20.4645 34.7421C20.9474 35.0181 21.5685 35.225 22.1206 35.225C22.8106 35.225 23.5006 34.9489 24.1216 34.535L46.4086 16.526V20.597C46.4086 20.8041 46.3397 20.942 46.2015 21.0799L23.1555 39.7099C22.5345 40.1928 21.7066 40.262 21.0855 39.8478L3.62856 29.3603ZM45.4426 41.8493L24.8116 63.1703C24.2595 63.7224 23.4316 63.8603 22.7416 63.5842L4.24956 55.3042C4.04247 55.2353 3.90456 55.0282 3.8356 54.8213L3.3527 50.5434L21.5687 58.6854C21.9827 58.8925 22.4658 58.9615 22.8798 58.9615C23.7076 58.9615 24.5358 58.6165 25.1569 57.9954L36.4039 46.4034L45.3739 39.1584L45.6499 41.4355C45.6495 41.5043 45.5805 41.7114 45.4426 41.8493ZM47.8576 33.4313C47.8576 33.6384 47.7886 33.7763 47.6505 33.9142L24.6045 52.5442C23.9834 53.0271 23.1555 53.0963 22.5345 52.6821L5.07747 42.1941C4.87037 42.1251 4.80142 41.918 4.80142 41.642V37.2949L21.9134 47.5759C22.3963 47.8519 23.0174 48.0588 23.5695 48.0588C24.2595 48.0588 25.0184 47.8517 25.5705 47.3688L47.9265 29.3598L47.9263 33.4311L47.8576 33.4313Z"
    fill="#16B7B3"
  />
</svg>
