<svg width="82" height="61" viewBox="0 0 82 61" fill="none" xmlns="http://www.w3.org/2000/svg">
<path
    d="M8.17908 14.4449C8.17908 14.359 8.17908 14.1868 8.09314 14.1008C7.92125 13.3268 7.06128 12.8968 6.37314 13.069C5.59906 13.2409 5.16906 14.1008 5.34128 14.789C5.34128 14.8749 5.42722 14.9609 5.51316 15.133C4.82505 15.3912 4.48131 16.1649 4.65316 16.853C4.82505 17.6271 5.68502 18.0571 6.37316 17.8849C6.63128 17.799 6.88911 17.6268 7.06128 17.4549L6.88939 18.8308C6.88939 18.9168 6.97534 19.0027 7.06128 19.0027L8.69535 18.5727C8.78129 18.5727 8.86724 18.4008 8.78129 18.3146L7.92129 17.2827C8.17941 17.3687 8.43724 17.3687 8.69536 17.2827C9.46944 17.1108 9.89944 16.2509 9.72722 15.5627C9.641 14.7889 8.95315 14.359 8.17908 14.4449Z"
    fill="#B71616"
  />
<path
    d="M22.539 14.0145L24.6031 11.0904C24.689 11.0045 24.689 10.8323 24.6031 10.6604L22.4531 7.73634C22.2812 7.56445 22.0231 7.56445 21.8512 7.73634L19.7871 10.6604C19.7012 10.7463 19.7012 10.9185 19.7871 11.0904L21.9371 14.0145C22.109 14.1866 22.3671 14.1866 22.539 14.0145Z"
    fill="#B71616"
  />
<path
    d="M37.3325 8.94082C37.4185 9.02677 37.5044 9.11271 37.6766 9.02677L39.9984 7.65084C40.6003 7.30678 40.7725 6.44677 40.4284 5.84491C40.2565 5.50085 39.9125 5.32897 39.6544 5.24302C39.3103 5.15708 38.9662 5.24302 38.6225 5.41491L38.3644 5.5868L38.1925 5.32896C38.0206 4.9849 37.6766 4.81302 37.4184 4.72708C37.0744 4.64113 36.7303 4.72708 36.3866 4.89896C35.7847 5.32896 35.6125 6.10303 35.9566 6.70489L37.3325 8.94082Z"
    fill="#B71616"
  />
<path
    d="M79.4709 13.6703L54.6169 0.512289C52.5529 -0.605854 50.0588 0.168232 48.941 2.23229L48.597 2.9204L37.073 0.16826C34.837 -0.347682 32.6011 1.02826 31.9989 3.26419L19.5289 3.5223C17.5507 3.5223 15.917 4.98416 15.487 6.79045L3.10302 10.2302C1.98517 10.4883 1.12516 11.2623 0.523022 12.2083C0.0070788 13.1542 -0.165093 14.3583 0.178964 15.3902L11.875 57.4442C12.1331 58.5623 12.9068 59.4223 13.8531 59.9382C13.8531 59.9382 13.9391 59.9382 13.9391 60.0242C14.885 60.5401 16.0031 60.6261 17.035 60.3682L35.439 55.2082L42.921 55.0363L49.371 56.5845L55.1328 59.5945C57.1969 60.7126 59.691 59.9385 60.8088 57.8745L81.2768 19.2605C82.3089 17.2823 81.5352 14.7883 79.4711 13.6702L79.4709 13.6703ZM16.6909 58.9063C16.0028 59.0782 15.315 58.9922 14.7128 58.6482C14.1109 58.3041 13.6809 57.7022 13.5087 57.1L1.64072 14.96C1.46884 14.2719 1.55478 13.5841 1.89884 12.9819C2.24289 12.38 2.84476 11.95 3.44698 11.6919L15.401 8.33782L16.1751 51.3378C16.1751 52.456 16.691 53.4878 17.4651 54.2619C17.7232 54.52 18.0669 54.7778 18.411 54.95C19.0129 55.2941 19.701 55.4659 20.4751 55.4659L29.0751 55.2941L16.6909 58.9063ZM20.5609 54.0041C19.8728 54.0041 19.185 53.746 18.6691 53.2301C18.1531 52.7141 17.895 52.1119 17.895 51.4241L17.035 7.73614C17.035 6.27429 18.1532 5.07022 19.615 5.07022L31.655 4.8121L21.851 45.7481C21.5929 46.8662 21.7651 47.984 22.367 48.93C22.797 49.6181 23.3129 50.134 24.001 50.4781C24.3451 50.65 24.6891 50.7362 25.0329 50.8222L36.9009 53.6603L20.5609 54.0041ZM25.3769 49.2741C24.6888 49.1023 24.0869 48.6723 23.7428 48.0701C23.3987 47.4682 23.2269 46.7801 23.3987 46.0919L33.5467 3.60793C33.8908 2.232 35.3527 1.28607 36.7286 1.62979L47.8226 4.29572L28.4726 40.8457C27.3545 42.9098 28.1285 45.4039 30.1926 46.5216L43.8666 53.7456L25.3769 49.2741ZM79.8149 18.5721L59.3469 57.1861C58.6588 58.4761 57.025 58.9921 55.8209 58.3043L30.9669 45.1463C29.6769 44.4582 29.161 42.9104 29.8488 41.6204L50.3168 2.92036C51.0049 1.63036 52.6387 1.11443 53.8427 1.80222L78.6967 15.0462C79.9867 15.7341 80.5027 17.3681 79.8149 18.5721Z"
    fill="#B71616"
  />
<path
    d="M59.2606 22.8724C59.1747 22.5284 58.7447 22.2706 58.4006 22.3565L49.8866 24.9365C47.6507 25.6246 46.3607 28.0324 47.0485 30.2684C47.3926 31.3865 48.1666 32.2465 49.1126 32.7624C49.8007 33.1065 50.6607 33.2784 51.5207 33.2784L48.4248 35.6865C48.1667 35.9446 48.1667 36.3746 48.5107 36.4606L53.0689 38.8687C53.4129 39.0406 53.757 38.7828 53.757 38.4387L54.0151 34.5687C54.4451 35.3428 55.047 35.8587 55.7351 36.2887C56.767 36.8047 57.971 36.9768 59.0892 36.5468C61.3251 35.7728 62.5292 33.365 61.841 31.1287L59.2606 22.8724Z"
    fill="#B71616"
  />
<path
    d="M51.7785 8.42437C52.0366 8.51031 52.2944 8.59626 52.5525 8.59626L51.5207 9.37033C51.4347 9.45627 51.4347 9.62844 51.5207 9.62844L53.0688 10.4025C53.1548 10.4885 53.3269 10.4025 53.3269 10.2306L53.4129 8.94063C53.5848 9.19874 53.7569 9.37063 54.0148 9.54251C54.3588 9.7144 54.7888 9.80063 55.1329 9.62846C55.907 9.37034 56.251 8.5966 56.0788 7.82253L55.2188 4.98438C55.2188 4.89844 55.0469 4.8125 54.8748 4.8125L52.0366 5.6725C51.2626 5.93061 50.8326 6.70436 51.0907 7.47843C51.1766 7.99437 51.4348 8.2525 51.7785 8.42436L51.7785 8.42437Z"
    fill="#B71616"
  />
<path
    d="M57.8829 51.6818C57.6248 51.5958 57.367 51.5099 57.1089 51.5099L58.1407 50.7358C58.2267 50.6499 58.2267 50.4777 58.1407 50.4777L56.5926 49.7036C56.5066 49.6177 56.3345 49.7036 56.3345 49.8755L56.2485 51.1655C56.0766 50.9074 55.9045 50.7355 55.6466 50.5636C55.3026 50.3918 54.8726 50.3055 54.5285 50.4777C53.7544 50.7358 53.4103 51.5096 53.5826 52.2836L54.4426 55.1218C54.4426 55.2077 54.6144 55.2937 54.7866 55.2937L57.6248 54.4337C58.3988 54.1755 58.8288 53.4018 58.5707 52.6277C58.4847 52.1977 58.2266 51.9396 57.8828 51.6818L57.8829 51.6818Z"
    fill="#B71616"
  />
</svg>
