<svg width="47" height="67" viewBox="0 0 47 67" fill="none" xmlns="http://www.w3.org/2000/svg">
<path
    d="M46.5471 39.2952L44.8221 29.2902C44.6842 28.5312 43.9942 27.9102 43.235 27.9102H28.4C27.5721 27.9102 26.951 28.4622 26.8129 29.2902L25.0879 39.2952C24.605 42.1241 25.1568 44.953 26.675 47.2992C28.4689 50.0592 31.3671 51.7152 34.61 52.0602V63.1002C34.61 63.5142 34.265 63.9281 33.851 63.9281L29.1589 64.5492C28.745 64.6181 28.4 64.9631 28.4 65.377C28.4 65.8599 28.8139 66.2049 29.2279 66.2049H42.2689C42.7518 66.2049 43.0968 65.791 43.0968 65.377C43.0968 64.9631 42.7518 64.5492 42.3378 64.5492L37.7149 63.9971C37.301 63.9281 36.956 63.5831 36.956 63.1692V52.1292C40.1299 51.7842 43.028 50.0592 44.822 47.3681C46.478 44.9531 47.0299 42.1242 46.547 39.2951L46.5471 39.2952ZM39.3021 36.673C34.3342 36.2591 32.9541 40.0541 27.7101 38.467L29.0901 30.394H42.5451L43.9251 38.329C42.7522 37.5011 41.234 36.8111 39.3022 36.6729L39.3021 36.673Z"
    fill="#B71616"
  />
<path
    d="M14.0474 13.075V9.00391H6.52641V13.075C6.52641 15.766 5.42246 18.3878 3.42141 20.182C1.42035 22.0448 0.316406 24.598 0.316406 27.289V64.066C0.316406 65.2388 1.28246 66.2049 2.45535 66.2049H18.2564C19.4292 66.2049 20.3953 65.2388 20.3953 64.066V27.3574C20.3953 24.6663 19.2913 22.0445 17.2903 20.2504C15.2203 18.3875 14.0474 15.8346 14.0474 13.0744V13.075ZM16.4624 55.579C16.4624 56.4068 15.8413 57.0279 15.0135 57.0279H5.62946C4.80158 57.0279 4.18052 56.3379 4.18052 55.579V35.983C4.18052 35.1551 4.87052 34.534 5.62946 34.534H15.0135C15.8413 34.534 16.4624 35.224 16.4624 35.983V55.579Z"
    fill="#B71616"
  />
<path
    d="M14.0473 1.96672C14.0473 1.27672 13.4952 0.724609 12.8052 0.724609H7.69915C7.00915 0.724609 6.45703 1.2767 6.45703 1.96672V6.31384H13.978V1.96672H14.0473Z"
    fill="#B71616"
  />
</svg>
