<svg width="259" height="258" viewBox="0 0 259 258" fill="none" xmlns="http://www.w3.org/2000/svg">
<g filter="url(#filter0_d_4341_281)">
<path
      d="M137.075 119.348C171.922 104.28 187.599 95.9719 187.599 72.2829C187.599 71.0489 187.703 26.382 187.703 25.1306V17.1879L187.599 17.2401C187.599 17.2401 187.599 17.2401 187.599 17.2227C187.599 15.9887 187.703 8.18503 187.703 6.93366V1.80653C187.703 0.485642 186.347 -0.383363 185.148 0.1728L170.636 6.8989C141.75 20.6813 134.555 39.5909 134.555 58.3266V117.714C134.555 119.001 135.893 119.87 137.075 119.366V119.348Z"
      fill="#FFBD8B"
    />
<path
      d="M123.346 117.925C108.278 83.078 99.97 67.4012 76.2809 67.4012C75.0469 67.4012 30.38 67.2969 29.1287 67.2969H21.186L21.2381 67.4012C21.2381 67.4012 21.2381 67.4012 21.2034 67.4012C19.9694 67.4012 12.1657 67.2969 10.9143 67.2969H5.80458C4.48369 67.2969 3.61468 68.6525 4.17085 69.8517L10.8969 84.3641C24.6794 113.25 43.5889 120.445 62.3247 120.445H121.713C122.999 120.445 123.868 119.107 123.364 117.925H123.346Z"
      fill="#FFBD8B"
    />
<path
      d="M122.55 130.09C87.703 145.159 72.0262 153.467 72.0262 177.156C72.0262 178.39 71.9219 223.057 71.9219 224.308V232.251L72.0262 232.199C72.0262 232.199 72.0262 232.199 72.0262 232.216C72.0262 233.45 71.9219 241.254 71.9219 242.505V247.632C71.9219 248.953 73.2775 249.822 74.4767 249.266L88.9891 242.54C117.875 228.757 125.07 209.848 125.07 191.112V131.724C125.07 130.438 123.732 129.569 122.55 130.073V130.09Z"
      fill="#FFBD8B"
    />
<path
      d="M248.104 166.015C234.322 137.129 215.412 129.934 196.676 129.934H137.289C136.003 129.934 135.133 131.272 135.638 132.454C150.706 167.301 159.014 182.978 182.703 182.978C183.937 182.978 228.604 183.082 229.855 183.082H237.798L237.746 182.978C237.746 182.978 237.746 182.978 237.78 182.978C239.014 182.978 246.818 183.082 248.069 183.082H253.197C254.517 183.082 255.386 181.726 254.83 180.527L248.087 166.015H248.104Z"
      fill="#FFBD8B"
    />
<path
      d="M137.342 191.338C136.317 191.338 135.5 192.172 135.5 193.18C135.5 224.238 160.684 249.422 191.742 249.422C192.767 249.422 193.584 248.588 193.584 247.58C193.584 216.522 168.401 191.338 137.342 191.338Z"
      fill="#FFBD8B"
    />
<path
      d="M121.644 58.1017C122.67 58.1017 123.487 57.2674 123.487 56.2594C123.504 25.1838 98.3203 0 67.2446 0C66.2192 0 65.4023 0.834245 65.4023 1.84229C65.4023 32.9005 90.5861 58.0843 121.644 58.0843V58.1017Z"
      fill="#FFBD8B"
    />
<path
      d="M253.144 60.6211C222.086 60.6211 196.902 85.8049 196.902 116.863C196.902 117.889 197.737 118.705 198.745 118.705C229.803 118.705 254.987 93.5216 254.987 62.4634C254.987 61.438 254.152 60.6211 253.144 60.6211Z"
      fill="#FFBD8B"
    />
<path
      d="M60.242 130.717C29.1838 130.717 4 155.901 4 186.976C4 188.002 4.83425 188.818 5.84229 188.818C36.9005 188.818 62.0843 163.635 62.0843 132.576C62.0843 131.551 61.2501 130.734 60.242 130.734V130.717Z"
      fill="#FFBD8B"
    />
</g>
<defs>
<filter
      id="filter0_d_4341_281"
      x="0"
      y="0"
      width="259"
      height="257.437"
      filterUnits="userSpaceOnUse"
      color-interpolation-filters="sRGB"
    >
<feFlood flood-opacity="0" result="BackgroundImageFix" />
<feColorMatrix
        in="SourceAlpha"
        type="matrix"
        values="0 0 0 0 0 0 0 0 0 0 0 0 0 0 0 0 0 0 127 0"
        result="hardAlpha"
      />
<feOffset dy="4" />
<feGaussianBlur stdDeviation="2" />
<feComposite in2="hardAlpha" operator="out" />
<feColorMatrix type="matrix" values="0 0 0 0 0 0 0 0 0 0 0 0 0 0 0 0 0 0 0.25 0" />
<feBlend mode="normal" in2="BackgroundImageFix" result="effect1_dropShadow_4341_281" />
<feBlend mode="normal" in="SourceGraphic" in2="effect1_dropShadow_4341_281" result="shape" />
</filter>
</defs>
</svg>
