<svg width="59" height="60" viewBox="0 0 59 60" fill="none" xmlns="http://www.w3.org/2000/svg">
<path
    d="M20.1563 29.7559V27.0829C20.1563 25.0726 18.5447 23.437 16.5625 23.437H7.9375C5.9553 23.437 4.34375 25.0726 4.34375 27.0829V29.7559L1.32408 33.839C0.4901 34.967 0.03125 36.3654 0.03125 37.7775V56.2493C0.03125 58.2595 1.6428 59.8951 3.625 59.8951H20.875C22.8572 59.8951 24.4688 58.2595 24.4688 56.2493V37.7775C24.4688 36.3654 24.0096 34.967 23.1759 33.8397L20.1563 29.7559ZM5.78125 27.0829C5.78125 25.8768 6.74863 24.8954 7.9375 24.8954H16.5625C17.7514 24.8954 18.7188 25.8768 18.7188 27.0829V29.2704H5.78125V27.0829ZM14.4063 37.7777V58.437H3.625C2.43613 58.437 1.46875 57.4556 1.46875 56.2495V37.7777C1.46875 37.3664 1.53433 36.9603 1.63114 36.5623H14.5307C14.4557 36.9631 14.4063 37.3687 14.4063 37.7777ZM14.9898 35.1039H2.23339C2.31267 34.9731 2.38432 34.8376 2.47551 34.7145L5.42216 30.7289H17.9991L15.6989 33.8393C15.4105 34.2294 15.185 34.6598 14.9896 35.1039L14.9898 35.1039ZM23.0311 56.2498C23.0311 57.4559 22.0638 58.4373 20.8749 58.4373H15.8436V37.7779C15.8436 36.6799 16.2001 35.5918 16.8501 34.7145L19.4374 31.2147L22.0247 34.7154C22.6745 35.592 23.0311 36.6801 23.0311 37.7782V56.25V56.2498ZM58.5253 17.6593C58.26 17.5461 57.9483 17.6088 57.7421 17.8175L53.2189 22.4062L48.6957 17.8175C48.415 17.5326 47.9602 17.5326 47.6794 17.8175L43.1562 22.4062L38.633 17.8175C38.3523 17.5326 37.8974 17.5326 37.6166 17.8175L33.0935 22.4062L28.5703 17.8175C28.2895 17.5326 27.8347 17.5326 27.5539 17.8175L23.0307 22.4062L18.5076 17.8175C18.3011 17.6103 17.9923 17.5475 17.7243 17.6593C17.4562 17.7717 17.2807 18.0383 17.2807 18.3329V21.3232C17.7812 21.3875 18.2664 21.4968 18.7182 21.6832V20.0929L22.5227 23.9525C22.8034 24.2373 23.2583 24.2373 23.539 23.9525L28.0622 19.3638L32.5854 23.9525C32.8662 24.2373 33.321 24.2373 33.6018 23.9525L38.125 19.3638L42.4375 23.7388V58.4366H26.1972C25.9829 58.9712 25.6797 59.4529 25.327 59.8949H55.3748C57.357 59.8949 58.9685 58.2593 58.9685 56.2491L58.9688 18.3324C58.9688 18.0378 58.7933 17.7712 58.5252 17.6589L58.5253 17.6593ZM57.5314 56.2498C57.5314 57.4559 56.564 58.4373 55.3752 58.4373H43.8752V23.7394L48.1877 19.3644L52.7109 23.9532C52.9916 24.238 53.4465 24.238 53.7272 23.9532L57.5317 20.0936V56.2498H57.5314ZM24.4062 6.78426C23.0413 7.46308 21.9106 8.52446 21.1501 9.88048C19.9192 12.0741 19.8278 14.7244 20.8907 17.1406L23.0312 19.3115L23.2594 19.08L22.2143 16.5758C21.9405 15.9569 21.7689 15.3218 21.6761 14.6865H26.6249C27.0223 14.6865 27.3437 14.3604 27.3437 13.9573C27.3437 13.5543 27.0223 13.2282 26.6249 13.2282H21.6222C21.6905 12.3081 21.9432 11.4141 22.3994 10.6014C23.389 8.83749 25.1607 7.68604 27.2621 7.4411C27.7871 7.37981 28.336 7.37981 28.864 7.4411C30.9641 7.68606 32.7359 8.83749 33.7255 10.6014C34.7306 12.3921 34.798 14.5698 33.9052 16.5899L32.8657 19.0802L33.0939 19.3115L35.234 17.1408C36.2964 14.714 36.2036 12.0694 34.975 9.88007C34.2145 8.52405 33.0838 7.46267 31.7191 6.78385C35.9081 5.1658 35.9689 0.885766 35.9689 0.832682C35.9689 0.429587 35.6475 0.103516 35.2502 0.103516C31.0863 0.103516 28.9947 1.5762 28.0627 2.56104C27.1305 1.5762 25.039 0.103516 20.8752 0.103516C20.4778 0.103516 20.1564 0.429587 20.1564 0.832682C20.1564 0.885775 20.2173 5.16621 24.4065 6.78385L24.4062 6.78426ZM27.4237 4.0829C27.5445 4.32284 27.7887 4.47095 28.0555 4.4746H28.064C28.3293 4.4746 28.5764 4.32215 28.7015 4.08358C28.752 3.98674 29.9451 1.81634 34.4485 1.58277C34.1747 3.00442 33.0113 5.93567 28.066 5.93707H28.0586C23.1473 5.93547 21.9671 3.00512 21.6836 1.58301C26.1659 1.81725 27.3649 3.97193 27.4237 4.08312L27.4237 4.0829ZM53.9714 7.42382L48.8097 10.1254C48.7045 10.1803 48.5907 10.2065 48.4797 10.2065C48.2201 10.2065 47.9687 10.0627 47.8409 9.81136C47.6583 9.45384 47.7974 9.01383 48.1498 8.8295L53.3115 6.12796C53.6653 5.94499 54.0992 6.08376 54.2801 6.44196C54.4627 6.79948 54.3237 7.23949 53.9712 7.42382H53.9714ZM52.4061 12.3956C52.5887 12.7531 52.4497 13.1931 52.0973 13.3774L46.9355 16.079C46.8304 16.1339 46.7165 16.1601 46.6055 16.1601C46.3459 16.1601 46.0946 16.0163 45.9668 15.765C45.7842 15.4075 45.9232 14.9674 46.2756 14.7831L51.4374 12.0816C51.7911 11.8986 52.2235 12.0374 52.4059 12.3956H52.4061ZM7.9379 51.1452C9.9201 51.1452 11.5317 49.5096 11.5317 47.4994C11.5317 45.4892 9.9201 43.8536 7.9379 43.8536C5.95571 43.8536 4.34415 45.4892 4.34415 47.4994C4.34415 49.5096 5.95571 51.1452 7.9379 51.1452ZM7.9379 45.3119C9.12677 45.3119 10.0942 46.2933 10.0942 47.4994C10.0942 48.7055 9.12677 49.6869 7.9379 49.6869C6.74903 49.6869 5.78165 48.7055 5.78165 47.4994C5.78165 46.2933 6.74903 45.3119 7.9379 45.3119ZM40.1874 16.3004L43.5286 5.68549C44.8565 1.47435 49.3097 -0.860093 53.4664 0.485832C57.6189 1.83094 59.9184 6.35358 58.593 10.5658L56.9662 15.7326C56.6953 15.8705 56.4399 16.0448 56.2178 16.2704L54.8504 17.6572L57.2229 10.1223C58.308 6.6758 56.4269 2.97584 53.0284 1.8745C49.6325 0.775737 45.9858 2.68341 44.899 6.12986L41.332 17.4611L40.1876 16.3002L40.1874 16.3004ZM35.7048 7.19049C37.7905 5.9687 39.4684 5.93702 39.563 5.93702C39.6074 5.93702 40.2069 5.9507 41.1045 6.19724L40.6676 7.58517C39.9949 7.40584 39.5672 7.39536 39.5585 7.39536C39.5457 7.39536 38.2461 7.44458 36.5772 8.37518C36.3131 7.95546 36.0229 7.55968 35.7046 7.19049H35.7048Z"
    fill="#16B7B3"
  />
</svg>
