<svg width="257" height="165" viewBox="0 0 257 165" fill="none" xmlns="http://www.w3.org/2000/svg">
<g filter="url(#filter0_d_1964_20)">
<rect
      x="253"
      y="157"
      width="249"
      height="157"
      rx="10"
      transform="rotate(-180 253 157)"
      fill="url(#paint0_linear_1964_20)"
    />
</g>
<path
    d="M47.4682 18.0596C46.4822 18.0596 45.6304 18.3681 44.913 18.9836C44.3934 19.4294 43.9756 19.9904 43.6568 20.6679C43.58 20.8318 43.3365 20.7801 43.3365 20.5986L43.3365 18.4448C43.3365 18.3518 43.2612 18.2766 43.1682 18.2766L40.5687 18.2766C40.4757 18.2766 40.4004 18.3518 40.4004 18.4448L40.4004 33.1105C40.4004 33.2035 40.4757 33.2788 40.5687 33.2788L43.1682 33.2788C43.2612 33.2788 43.3365 33.2035 43.3365 33.1105L43.3365 27.1763C43.3365 26.9948 43.58 26.9431 43.6568 27.1069C43.9742 27.7845 44.3934 28.3454 44.913 28.7912C45.6304 29.4083 46.4822 29.7153 47.4682 29.7153C48.8602 29.7153 50.0131 29.1573 50.9254 28.0413C51.8391 26.9254 52.2953 25.5407 52.2953 23.8874C52.2953 22.2341 51.8391 20.851 50.9254 19.7335C50.0117 18.6176 48.8588 18.0596 47.4682 18.0596ZM48.4248 26.1386C47.8742 26.7409 47.1996 27.0405 46.4024 27.0405C45.5182 27.0405 44.7861 26.7394 44.2059 26.1386C43.6258 25.5378 43.3365 24.7864 43.3365 23.8874C43.3365 22.9885 43.6258 22.2415 44.2059 21.6481C44.7861 21.0532 45.5182 20.7565 46.4024 20.7565C47.1996 20.7565 47.8742 21.0576 48.4248 21.6584C48.9754 22.2607 49.2514 23.0032 49.2514 23.8874C49.2514 24.7717 48.9754 25.5363 48.4248 26.1386Z"
    fill="#052533"
  />
<path
    d="M56.4592 15.0059L53.8597 15C53.7667 15 53.6914 15.0753 53.6914 15.1683L53.6914 29.3305C53.6914 29.4235 53.7667 29.4988 53.8597 29.4988L56.4592 29.4988C56.5522 29.4988 56.6275 29.4235 56.6275 29.3305L56.6275 15.1742C56.6275 15.0812 56.5522 15.0059 56.4592 15.0059Z"
    fill="#052533"
  />
<path
    d="M63.8399 18.0596C62.1291 18.0596 60.7016 18.6176 59.5561 19.7335C58.4106 20.8495 57.8379 22.2341 57.8379 23.8874C57.8379 25.5407 58.4106 26.9254 59.5561 28.0414C60.7016 29.1573 62.1291 29.7153 63.8399 29.7153C65.5508 29.7153 66.9783 29.1573 68.1238 28.0414C69.2693 26.9254 69.842 25.5407 69.842 23.8874C69.842 22.2341 69.2693 20.851 68.1238 19.7335C66.9783 18.6176 65.5508 18.0596 63.8399 18.0596ZM65.9494 26.1386C65.384 26.7409 64.6799 27.0405 63.8399 27.0405C63 27.0405 62.2959 26.7394 61.7305 26.1386C61.1651 25.5378 60.8817 24.7864 60.8817 23.8874C60.8817 22.9885 61.1651 22.2607 61.7305 21.6584C62.2959 21.0576 62.9985 20.7565 63.8399 20.7565C64.6814 20.7565 65.384 21.0532 65.9494 21.6481C66.5147 22.243 66.7982 22.9899 66.7982 23.8874C66.7982 24.7849 66.5147 25.5363 65.9494 26.1386Z"
    fill="#052533"
  />
<path
    d="M77.3614 18.0596C75.6506 18.0596 74.2231 18.6176 73.0776 19.7335C71.9321 20.8495 71.3594 22.2341 71.3594 23.8874C71.3594 25.5407 71.9321 26.9254 73.0776 28.0414C74.2231 29.1573 75.6506 29.7153 77.3614 29.7153C79.0723 29.7153 80.4997 29.1573 81.6452 28.0414C82.7907 26.9254 83.3635 25.5407 83.3635 23.8874C83.3635 22.2341 82.7907 20.851 81.6452 19.7335C80.4997 18.6176 79.0723 18.0596 77.3614 18.0596ZM79.4709 26.1386C78.9055 26.7409 78.2014 27.0405 77.3614 27.0405C76.5215 27.0405 75.8174 26.7394 75.252 26.1386C74.6866 25.5378 74.4032 24.7864 74.4032 23.8874C74.4032 22.9885 74.6866 22.2607 75.252 21.6584C75.8174 21.0576 76.52 20.7565 77.3614 20.7565C78.2028 20.7565 78.9055 21.0532 79.4709 21.6481C80.0362 22.243 80.3197 22.9899 80.3197 23.8874C80.3197 24.7849 80.0362 25.5363 79.4709 26.1386Z"
    fill="#052533"
  />
<path
    d="M91.1116 28.6367L90.2525 26.6409C90.2155 26.5568 90.1181 26.5169 90.034 26.5524L89.5513 26.7531C89.2088 26.8948 88.825 26.9303 88.4737 26.8122C87.8788 26.6144 87.5806 26.1184 87.5806 25.3242L87.5806 21.0345C87.5806 20.9415 87.6559 20.8662 87.7489 20.8662L90.6185 20.8662C90.7115 20.8662 90.7868 20.7909 90.7868 20.6979L90.7868 18.4468C90.7868 18.3538 90.7115 18.2785 90.6185 18.2785L87.7489 18.2785C87.6559 18.2785 87.5806 18.2032 87.5806 18.1102L87.5806 15.1741C87.5806 15.0811 87.5053 15.0059 87.4123 15.0059L84.8128 15.0118C84.7198 15.0118 84.6445 15.087 84.6445 15.18L84.6445 25.1485C84.6445 26.6129 85.0136 27.7038 85.7531 28.4212C86.1222 28.7799 86.5916 29.0486 87.1614 29.2286C88.1371 29.5357 89.1896 29.4899 90.1565 29.1563L91.0127 28.8611C91.1057 28.8286 91.1514 28.7253 91.1116 28.6352L91.1116 28.6367Z"
    fill="#052533"
  />
<path
    d="M26.749 23.7489C29.3027 22.6448 30.4497 22.0366 30.4497 20.3021C30.4497 20.2121 30.4571 16.9394 30.4571 16.8479L30.4571 16.2663L30.4497 16.2692C30.4497 16.2692 30.4497 16.2692 30.4497 16.2678C30.4497 16.1777 30.4571 15.605 30.4571 15.5134L30.4571 15.1385C30.4571 15.0426 30.3567 14.9791 30.2696 15.0189L29.2068 15.512C27.0914 16.5217 26.5645 17.9078 26.5645 19.2791L26.5645 23.6294C26.5645 23.7238 26.6619 23.7873 26.749 23.7504L26.749 23.7489Z"
    fill="#052533"
  />
<path
    d="M25.7436 23.6446C24.6394 21.0909 24.0312 19.9439 22.2967 19.9439C22.2067 19.9439 18.9341 19.9365 18.8425 19.9365L18.2609 19.9365L18.2639 19.9439C18.2639 19.9439 18.2639 19.9439 18.2624 19.9439C18.1724 19.9439 17.5996 19.9365 17.5081 19.9365L17.1317 19.9365C17.0357 19.9365 16.9722 20.0369 17.0121 20.124L17.5051 21.1868C18.5148 23.3022 19.9009 23.8292 21.2723 23.8292L25.6225 23.8292C25.717 23.8292 25.7805 23.7317 25.7436 23.6446Z"
    fill="#052533"
  />
<path
    d="M25.6847 24.5356C23.1309 25.6397 21.9839 26.2479 21.9839 27.9824C21.9839 28.0724 21.9766 31.3451 21.9766 31.4366L21.9766 32.0182L21.9839 32.0153C21.9839 32.0153 21.9839 32.0153 21.9839 32.0167C21.9839 32.1068 21.9766 32.6795 21.9766 32.7711L21.9766 33.146C21.9766 33.2419 22.0769 33.3054 22.164 33.2656L23.2269 32.7725C25.3422 31.7628 25.8692 30.3767 25.8692 29.0054L25.8692 24.6551C25.8692 24.5607 25.7718 24.4972 25.6847 24.5341L25.6847 24.5356Z"
    fill="#052533"
  />
<path
    d="M34.8819 27.1677C33.8722 25.0524 32.4861 24.5254 31.1147 24.5254L26.7645 24.5254C26.67 24.5254 26.6066 24.6228 26.6435 24.7099C27.7476 27.2637 28.3558 28.4106 30.0903 28.4106C30.1803 28.4106 33.453 28.418 33.5445 28.418L34.1261 28.418L34.1232 28.4106C34.1232 28.4106 34.1232 28.4106 34.1246 28.4106C34.2147 28.4106 34.7874 28.418 34.879 28.418L35.2539 28.418C35.3498 28.418 35.4133 28.3176 35.3735 28.2305L34.8804 27.1677L34.8819 27.1677Z"
    fill="#052533"
  />
<path
    d="M26.7686 29.0234C26.6933 29.0234 26.6328 29.084 26.6328 29.1592C26.6328 31.4355 28.478 33.2792 30.7528 33.2792C30.8281 33.2792 30.8886 33.2187 30.8886 33.1434C30.8886 30.8672 29.0434 29.0234 26.7686 29.0234Z"
    fill="#052533"
  />
<path
    d="M25.618 19.2616C25.6933 19.2616 25.7538 19.2011 25.7538 19.1258C25.7538 16.8511 23.9086 15.0059 21.6339 15.0059C21.5586 15.0059 21.498 15.0664 21.498 15.1417C21.498 17.4179 23.3432 19.2616 25.618 19.2616Z"
    fill="#052533"
  />
<path
    d="M31.2667 23.703C33.5429 23.703 35.3866 21.8578 35.3866 19.5831C35.3866 19.5078 35.3261 19.4473 35.2508 19.4473C32.9746 19.4473 31.1309 21.2925 31.1309 23.5672C31.1309 23.6425 31.1914 23.703 31.2667 23.703Z"
    fill="#052533"
  />
<path
    d="M21.12 24.5811C18.8452 24.5811 17 26.4263 17 28.701C17 28.7763 17.0605 28.8368 17.1358 28.8368C19.412 28.8368 21.2558 26.9916 21.2558 24.7169C21.2558 24.6416 21.1952 24.5811 21.12 24.5811Z"
    fill="#052533"
  />
<path
    d="M17.98 142L17.98 131.92H19.226V136.365H24.532V131.92H25.778V142H24.532L24.532 137.548H19.226L19.226 142H17.98ZM30.9617 142.21C30.2104 142.21 29.5617 142.04 29.0157 141.699C28.4744 141.358 28.0567 140.887 27.7627 140.285C27.4687 139.683 27.3217 138.992 27.3217 138.213C27.3217 137.42 27.4711 136.724 27.7697 136.127C28.0684 135.53 28.4907 135.065 29.0367 134.734C29.5827 134.398 30.2244 134.23 30.9617 134.23C31.7177 134.23 32.3687 134.4 32.9147 134.741C33.4607 135.077 33.8784 135.546 34.1677 136.148C34.4617 136.745 34.6087 137.434 34.6087 138.213C34.6087 139.002 34.4617 139.697 34.1677 140.299C33.8737 140.896 33.4537 141.365 32.9077 141.706C32.3617 142.042 31.7131 142.21 30.9617 142.21ZM30.9617 141.027C31.7457 141.027 32.3291 140.766 32.7117 140.243C33.0944 139.72 33.2857 139.044 33.2857 138.213C33.2857 137.359 33.0921 136.68 32.7047 136.176C32.3174 135.667 31.7364 135.413 30.9617 135.413C30.4344 135.413 30.0004 135.532 29.6597 135.77C29.3191 136.008 29.0647 136.337 28.8967 136.757C28.7287 137.177 28.6447 137.662 28.6447 138.213C28.6447 139.062 28.8407 139.744 29.2327 140.257C29.6247 140.77 30.2011 141.027 30.9617 141.027ZM36.2899 142V131.71H37.5359V142H36.2899ZM42.6043 142.21C41.8996 142.21 41.2953 142.035 40.7913 141.685C40.2873 141.33 39.8976 140.852 39.6223 140.25C39.3516 139.648 39.2163 138.969 39.2163 138.213C39.2163 137.457 39.3516 136.778 39.6223 136.176C39.8976 135.574 40.2873 135.1 40.7913 134.755C41.2953 134.405 41.8973 134.23 42.5973 134.23C43.3113 134.23 43.9109 134.403 44.3963 134.748C44.8816 135.093 45.2479 135.567 45.4953 136.169C45.7473 136.771 45.8733 137.452 45.8733 138.213C45.8733 138.964 45.7473 139.643 45.4953 140.25C45.2479 140.852 44.8816 141.33 44.3963 141.685C43.9109 142.035 43.3136 142.21 42.6043 142.21ZM42.7583 141.069C43.2669 141.069 43.6846 140.948 44.0113 140.705C44.3379 140.458 44.5783 140.119 44.7323 139.69C44.8909 139.256 44.9703 138.764 44.9703 138.213C44.9703 137.653 44.8909 137.161 44.7323 136.736C44.5783 136.307 44.3403 135.973 44.0183 135.735C43.6963 135.492 43.2879 135.371 42.7933 135.371C42.2799 135.371 41.8553 135.497 41.5193 135.749C41.1879 136.001 40.9406 136.342 40.7773 136.771C40.6186 137.2 40.5393 137.681 40.5393 138.213C40.5393 138.75 40.6209 139.235 40.7843 139.669C40.9476 140.098 41.1926 140.439 41.5193 140.691C41.8506 140.943 42.2636 141.069 42.7583 141.069ZM44.9703 142V136.435H44.8303V131.92H46.0833V142H44.9703ZM51.3205 142.21C50.5785 142.21 49.9298 142.047 49.3745 141.72C48.8238 141.389 48.3945 140.929 48.0865 140.341C47.7785 139.748 47.6245 139.058 47.6245 138.269C47.6245 137.443 47.7761 136.729 48.0795 136.127C48.3828 135.52 48.8051 135.054 49.3465 134.727C49.8925 134.396 50.5318 134.23 51.2645 134.23C52.0251 134.23 52.6715 134.405 53.2035 134.755C53.7401 135.105 54.1415 135.604 54.4075 136.253C54.6781 136.902 54.7948 137.674 54.7575 138.57H53.4975V138.122C53.4835 137.193 53.2945 136.5 52.9305 136.043C52.5665 135.581 52.0251 135.35 51.3065 135.35C50.5365 135.35 49.9508 135.597 49.5495 136.092C49.1481 136.587 48.9475 137.296 48.9475 138.22C48.9475 139.111 49.1481 139.802 49.5495 140.292C49.9508 140.782 50.5225 141.027 51.2645 141.027C51.7638 141.027 52.1978 140.913 52.5665 140.684C52.9351 140.455 53.2245 140.126 53.4345 139.697L54.6315 140.11C54.3375 140.777 53.8941 141.295 53.3015 141.664C52.7135 142.028 52.0531 142.21 51.3205 142.21ZM48.5275 138.57V137.569H54.1135V138.57H48.5275ZM56.3159 142V134.44H57.4289V136.267L57.2469 136.029C57.3356 135.796 57.4499 135.581 57.5899 135.385C57.7346 135.189 57.8956 135.028 58.0729 134.902C58.2689 134.743 58.4906 134.622 58.7379 134.538C58.9853 134.454 59.2373 134.405 59.4939 134.391C59.7506 134.372 59.9909 134.389 60.2149 134.44V135.609C59.9536 135.539 59.6666 135.52 59.3539 135.553C59.0413 135.586 58.7519 135.7 58.4859 135.896C58.2433 136.069 58.0543 136.279 57.9189 136.526C57.7883 136.773 57.6973 137.042 57.6459 137.331C57.5946 137.616 57.5689 137.907 57.5689 138.206V142H56.3159ZM64.3413 142V131.92H65.6013L70.8583 139.795V131.92H72.1183V142H70.8583L65.6013 134.118V142H64.3413ZM76.2247 142.21C75.66 142.21 75.1864 142.107 74.8037 141.902C74.4257 141.692 74.1387 141.417 73.9427 141.076C73.7514 140.735 73.6557 140.362 73.6557 139.956C73.6557 139.559 73.7304 139.216 73.8797 138.927C74.0337 138.633 74.2484 138.39 74.5237 138.199C74.799 138.003 75.128 137.849 75.5107 137.737C75.87 137.639 76.2714 137.555 76.7147 137.485C77.1627 137.41 77.6154 137.343 78.0727 137.282C78.53 137.221 78.957 137.163 79.3537 137.107L78.9057 137.366C78.9197 136.694 78.7844 136.197 78.4997 135.875C78.2197 135.553 77.7344 135.392 77.0437 135.392C76.5864 135.392 76.185 135.497 75.8397 135.707C75.499 135.912 75.2587 136.248 75.1187 136.715L73.9357 136.358C74.1177 135.695 74.47 135.175 74.9927 134.797C75.5154 134.419 76.2037 134.23 77.0577 134.23C77.7437 134.23 78.3317 134.354 78.8217 134.601C79.3164 134.844 79.671 135.212 79.8857 135.707C79.993 135.94 80.0607 136.195 80.0887 136.47C80.1167 136.741 80.1307 137.025 80.1307 137.324V142H79.0247V140.187L79.2837 140.355C78.999 140.966 78.6 141.428 78.0867 141.741C77.578 142.054 76.9574 142.21 76.2247 142.21ZM76.4137 141.167C76.8617 141.167 77.249 141.088 77.5757 140.929C77.907 140.766 78.173 140.553 78.3737 140.292C78.5744 140.026 78.705 139.737 78.7657 139.424C78.8357 139.191 78.873 138.932 78.8777 138.647C78.887 138.358 78.8917 138.136 78.8917 137.982L79.3257 138.171C78.9197 138.227 78.5207 138.281 78.1287 138.332C77.7367 138.383 77.3657 138.439 77.0157 138.5C76.6657 138.556 76.3507 138.624 76.0707 138.703C75.8654 138.768 75.6717 138.852 75.4897 138.955C75.3124 139.058 75.1677 139.191 75.0557 139.354C74.9484 139.513 74.8947 139.711 74.8947 139.949C74.8947 140.154 74.946 140.35 75.0487 140.537C75.156 140.724 75.3194 140.875 75.5387 140.992C75.7627 141.109 76.0544 141.167 76.4137 141.167ZM90.9877 142L90.9947 137.163C90.9947 136.598 90.843 136.157 90.5397 135.84C90.241 135.518 89.8514 135.357 89.3707 135.357C89.0907 135.357 88.8247 135.422 88.5727 135.553C88.3207 135.679 88.1154 135.88 87.9567 136.155C87.798 136.426 87.7187 136.773 87.7187 137.198L87.0607 136.932C87.0514 136.395 87.161 135.926 87.3897 135.525C87.623 135.119 87.9404 134.804 88.3417 134.58C88.743 134.356 89.1957 134.244 89.6997 134.244C90.4884 134.244 91.109 134.484 91.5617 134.965C92.0144 135.441 92.2407 136.083 92.2407 136.89L92.2337 142H90.9877ZM81.9437 142V134.44H83.0567V136.463H83.1967V142H81.9437ZM86.4727 142L86.4797 137.212C86.4797 136.633 86.3304 136.181 86.0317 135.854C85.733 135.523 85.3364 135.357 84.8417 135.357C84.3517 135.357 83.955 135.525 83.6517 135.861C83.3484 136.197 83.1967 136.643 83.1967 137.198L82.5387 136.806C82.5387 136.316 82.6554 135.877 82.8887 135.49C83.122 135.103 83.4394 134.799 83.8407 134.58C84.242 134.356 84.697 134.244 85.2057 134.244C85.7144 134.244 86.1577 134.351 86.5357 134.566C86.9137 134.781 87.2054 135.089 87.4107 135.49C87.616 135.887 87.7187 136.36 87.7187 136.911L87.7117 142H86.4727ZM97.2716 142.21C96.5296 142.21 95.881 142.047 95.3256 141.72C94.775 141.389 94.3456 140.929 94.0376 140.341C93.7296 139.748 93.5756 139.058 93.5756 138.269C93.5756 137.443 93.7273 136.729 94.0306 136.127C94.334 135.52 94.7563 135.054 95.2976 134.727C95.8436 134.396 96.483 134.23 97.2156 134.23C97.9763 134.23 98.6226 134.405 99.1546 134.755C99.6913 135.105 100.093 135.604 100.359 136.253C100.629 136.902 100.746 137.674 100.709 138.57H99.4486V138.122C99.4346 137.193 99.2456 136.5 98.8816 136.043C98.5176 135.581 97.9763 135.35 97.2576 135.35C96.4876 135.35 95.902 135.597 95.5006 136.092C95.0993 136.587 94.8986 137.296 94.8986 138.22C94.8986 139.111 95.0993 139.802 95.5006 140.292C95.902 140.782 96.4736 141.027 97.2156 141.027C97.715 141.027 98.149 140.913 98.5176 140.684C98.8863 140.455 99.1756 140.126 99.3856 139.697L100.583 140.11C100.289 140.777 99.8453 141.295 99.2526 141.664C98.6646 142.028 98.0043 142.21 97.2716 142.21ZM94.4786 138.57V137.569H100.065V138.57H94.4786Z"
    fill="#052533"
  />
<path
    d="M55.7695 82.9994C55.7695 81.1502 55.0613 79.4003 53.777 78.0692C53.3802 77.6587 52.7257 77.6476 52.315 78.0445C51.9031 78.44 51.8919 79.0945 52.2889 79.5065C54.1105 81.3928 54.1105 84.6062 52.2889 86.4925C52.0946 86.6937 51.9995 86.9527 51.9995 87.2105C51.9995 87.4806 52.1056 87.7519 52.315 87.9531C52.7256 88.3499 53.3801 88.339 53.777 87.9284C55.0626 86.5973 55.7695 84.8473 55.7695 82.9982L55.7695 82.9994Z"
    fill="black"
  />
<path
    d="M61.9434 82.9994C61.9434 79.494 60.5833 76.1801 58.1114 73.6681C57.7104 73.2602 57.0572 73.2548 56.6494 73.6544C56.2415 74.0568 56.236 74.7113 56.637 75.1164C58.7259 77.2412 59.8751 80.0397 59.8751 83.0008C59.8751 85.962 58.7259 88.7605 56.637 90.8853C56.4386 91.0865 56.3407 91.3483 56.3407 91.6087C56.3407 91.876 56.4441 92.1433 56.6493 92.3459C57.0558 92.7455 57.7103 92.74 58.1114 92.3321C60.5819 89.8202 61.9434 86.5049 61.9434 83.0008L61.9434 82.9994Z"
    fill="black"
  />
<path
    d="M62.4465 96.6958C66.1021 93.0416 68.1152 88.1761 68.1152 82.9993C68.1152 77.8224 66.1021 72.957 62.4465 69.3028C62.0428 68.8991 61.3883 68.8991 60.9845 69.3028C60.5808 69.7064 60.5808 70.3609 60.9845 70.7648C64.2501 74.0291 66.0483 78.3736 66.0483 83.0007C66.0483 87.6278 64.2501 91.9724 60.9845 95.2366C60.7833 95.4378 60.6813 95.7023 60.6813 95.9669C60.6813 96.2316 60.7819 96.496 60.9845 96.6972C61.3881 97.1009 62.0427 97.1009 62.4465 96.6972L62.4465 96.6958Z"
    fill="black"
  />
<path
    d="M20.6652 74.9376H22.8661V72.7367C22.8661 72.3274 23.1935 72 23.6027 72C24.0029 72 24.3303 72.3274 24.3303 72.7367V74.9376H25.8036V72.7367C25.8036 72.3274 26.1311 72 26.5312 72C26.9405 72 27.2679 72.3274 27.2679 72.7367V74.9376H28.7321V72.7367C28.7321 72.3274 29.0595 72 29.4688 72C29.869 72 30.1964 72.3274 30.1964 72.7367V74.9376H31.6697V72.7367C31.6697 72.3274 31.9971 72 32.3973 72C32.8066 72 33.134 72.3274 33.134 72.7367V74.9376H35.3349C35.7351 74.9376 36.0716 75.265 36.0716 75.6652V77.8661H38.2633C38.6726 77.8661 39 78.1935 39 78.6027C39 79.0029 38.6726 79.3303 38.2633 79.3303H36.0716V80.8036H38.2633C38.6726 80.8036 39 81.1311 39 81.5312C39 81.9405 38.6726 82.2679 38.2633 82.2679H36.0716V83.7321H38.2633C38.6726 83.7321 39 84.0595 39 84.4688C39 84.869 38.6726 85.1964 38.2633 85.1964H36.0716V86.6697H38.2633C38.6726 86.6697 39 86.9971 39 87.3973C39 87.8066 38.6726 88.134 38.2633 88.134H36.0716V90.3349C36.0716 90.7351 35.7351 91.0716 35.3349 91.0716H33.134V93.2633C33.134 93.6726 32.8066 94 32.3973 94C31.9972 94 31.6697 93.6726 31.6697 93.2633V91.0716H30.1964V93.2633C30.1964 93.6726 29.869 94 29.4688 94C29.0596 94 28.7321 93.6726 28.7321 93.2633V91.0716H27.2679V93.2633C27.2679 93.6726 26.9405 94 26.5312 94C26.1311 94 25.8036 93.6726 25.8036 93.2633V91.0716H24.3303V93.2633C24.3303 93.6726 24.0029 94 23.6027 94C23.1935 94 22.8661 93.6726 22.8661 93.2633V91.0716H20.6652C20.265 91.0716 19.9376 90.7351 19.9376 90.3349V88.134H17.7367C17.3274 88.134 17 87.8066 17 87.3973C17 86.9972 17.3274 86.6697 17.7367 86.6697H19.9376V85.1964H17.7367C17.3274 85.1964 17 84.869 17 84.4688C17 84.0596 17.3274 83.7321 17.7367 83.7321H19.9376V82.2679H17.7367C17.3274 82.2679 17 81.9405 17 81.5312C17 81.1311 17.3274 80.8036 17.7367 80.8036H19.9376V79.3303H17.7367C17.3274 79.3303 17 79.0029 17 78.6027C17 78.1935 17.3274 77.8661 17.7367 77.8661H19.9376V75.6652C19.9376 75.265 20.265 74.9376 20.6652 74.9376ZM24.3303 78.6027H31.6696C32.0697 78.6027 32.3972 78.9301 32.3972 79.3303V86.6696C32.3972 87.0697 32.0698 87.3972 31.6696 87.3972H24.3303C23.9301 87.3972 23.6027 87.0698 23.6027 86.6696L23.6027 79.3303C23.6027 78.9301 23.9301 78.6027 24.3303 78.6027ZM30.9329 80.0669H25.0669V85.9329H30.9329V80.0669ZM34.5981 76.4018H21.402L21.402 89.5979H34.5981V76.4018Z"
    fill="black"
  />
<defs>
<filter
      id="filter0_d_1964_20"
      x="0"
      y="0"
      width="257"
      height="165"
      filterUnits="userSpaceOnUse"
      color-interpolation-filters="sRGB"
    >
<feFlood flood-opacity="0" result="BackgroundImageFix" />
<feColorMatrix
        in="SourceAlpha"
        type="matrix"
        values="0 0 0 0 0 0 0 0 0 0 0 0 0 0 0 0 0 0 127 0"
        result="hardAlpha"
      />
<feOffset dy="4" />
<feGaussianBlur stdDeviation="2" />
<feComposite in2="hardAlpha" operator="out" />
<feColorMatrix type="matrix" values="0 0 0 0 0 0 0 0 0 0 0 0 0 0 0 0 0 0 0.25 0" />
<feBlend mode="normal" in2="BackgroundImageFix" result="effect1_dropShadow_1964_20" />
<feBlend mode="normal" in="SourceGraphic" in2="effect1_dropShadow_1964_20" result="shape" />
</filter>
<linearGradient
      id="paint0_linear_1964_20"
      x1="522"
      y1="151"
      x2="240.535"
      y2="359.695"
      gradientUnits="userSpaceOnUse"
    >
<stop stop-color="#FFC79C" />
<stop offset="0.5" stop-color="#FFF8EE" />
<stop offset="1" stop-color="#3DC4C2" />
</linearGradient>
</defs>
</svg>
