<svg xmlns="http://www.w3.org/2000/svg" fill="none" viewBox="0 0 16 16">
  <path
    fill="#16b7b3"
    d="M8.48 7.655c2.221-.967 3.22-1.498 3.22-3.019l.007-3.025v-.509H11.7l.006-.66V.116a.114.114 0 0 0-.162-.104l-.925.432c-1.84.883-2.3 2.097-2.3 3.298V7.55c0 .083.085.138.16.105Zm-.872-.091c-.961-2.235-1.49-3.241-3-3.241L1.6 4.317h-.505v.006L.44 4.317H.114a.114.114 0 0 0-.103.163l.43.93c.877 1.853 2.083 2.315 3.276 2.315h3.785a.115.115 0 0 0 .106-.161Zm-.049.78c-2.222.966-3.22 1.498-3.22 3.018l-.007 3.025v.51h.006l-.006.659v.328c0 .083.087.14.162.104l.924-.432c1.841-.883 2.3-2.097 2.3-3.298V8.45a.115.115 0 0 0-.16-.105Zm8.001 2.306c-.878-1.852-2.084-2.315-3.277-2.315H8.497a.115.115 0 0 0-.105.161c.961 2.236 1.49 3.241 3 3.241l3.007.006h.505v-.006l.656.006h.325c.084 0 .14-.087.104-.163l-.43-.93ZM8.5 12.274a.118.118 0 0 0-.117.119c0 1.992 1.606 3.607 3.585 3.607a.118.118 0 0 0 .117-.118c0-1.993-1.606-3.608-3.585-3.608ZM7.499 3.726a.118.118 0 0 0 .117-.118C7.616 1.615 6.01.001 4.031.001a.118.118 0 0 0-.117.118c0 1.993 1.606 3.607 3.585 3.607Zm4.915 3.888c1.98 0 3.585-1.616 3.585-3.607a.118.118 0 0 0-.117-.118c-1.98 0-3.585 1.617-3.585 3.607 0 .066.053.118.117.118Zm-8.829.77C1.605 8.384 0 10.001 0 11.991c0 .066.053.119.117.119 1.98 0 3.585-1.617 3.585-3.608a.118.118 0 0 0-.117-.118Z"
  />
</svg>
