<svg xmlns="http://www.w3.org/2000/svg" fill="none" viewBox="0 0 32 32">
  <path
    fill="#16b7b3"
    d="M16.964 15.311c4.443-1.934 6.442-2.997 6.442-6.038l.012-6.05V2.205h-.012c0-.159.012-1.16.012-1.32V.23a.227.227 0 0 0-.324-.207l-1.85.863c-3.681 1.767-4.6 4.193-4.6 6.596v7.617c0 .167.17.277.32.212Zm-1.748-.183c-1.922-4.47-2.978-6.482-6-6.482l-6.013-.012H2.19v.012c-.158 0-1.153-.012-1.31-.012H.228a.228.228 0 0 0-.207.326l.858 1.86c1.756 3.705 4.168 4.63 6.555 4.63h7.57a.23.23 0 0 0 .21-.322Zm-.098 1.559c-4.443 1.934-6.442 2.997-6.442 6.038l-.012 6.05v1.018h.012c0 .159-.012 1.16-.012 1.32v.655c0 .167.174.28.324.207l1.849-.863c3.682-1.767 4.6-4.193 4.6-6.596V16.9a.23.23 0 0 0-.32-.212ZM31.12 21.3c-1.756-3.705-4.168-4.63-6.555-4.63h-7.57a.23.23 0 0 0-.21.322c1.921 4.471 2.977 6.482 6 6.482l6.012.012h1.012v-.012c.158 0 1.153.012 1.31.012h.652c.166 0 .28-.175.207-.325l-.858-1.86Zm-14.116 3.25a.236.236 0 0 0-.235.235c0 3.986 3.213 7.215 7.17 7.215.13 0 .235-.106.235-.236 0-3.986-3.213-7.215-7.17-7.215ZM14.998 7.453c.13 0 .235-.106.235-.236 0-3.986-3.213-7.215-7.17-7.215a.236.236 0 0 0-.235.237c0 3.986 3.213 7.214 7.17 7.214Zm9.834 7.777c3.961 0 7.17-3.233 7.17-7.215a.236.236 0 0 0-.235-.236c-3.96 0-7.17 3.233-7.17 7.214 0 .13.106.237.235.237ZM7.17 16.769C3.209 16.769 0 20 0 23.983c0 .13.105.236.235.236 3.96 0 7.17-3.232 7.17-7.214a.236.236 0 0 0-.235-.236Z"
  />
</svg>
