<svg width="74" height="74" viewBox="0 0 74 74" fill="none" xmlns="http://www.w3.org/2000/svg">
<path
    fill-rule="evenodd"
    clip-rule="evenodd"
    d="M42.0305 10.9996L35.2848 10.9863L26.6132 11.0032L23.6995 11.053L21.6018 11.1337L19.9262 11.2457L18.5252 11.3857L17.3251 11.5526L16.2826 11.7446L15.3696 11.96L14.5665 12.1958L13.8581 12.4506L13.2315 12.7224L12.6753 13.0102L12.1801 13.3149L11.7354 13.6373L11.3317 13.9817L10.9617 14.3517L10.6179 14.7554L10.2956 15.2001L9.99091 15.6954L9.70233 16.2516L9.43061 16.8781L9.17576 17.5865L8.93993 18.3896L8.7253 19.3026L8.53259 20.3451L8.36566 21.5452L8.22571 22.9462L8.11442 24.6211L8.033 26.7194L7.98314 29.6324L7.96628 38.3052L7.98314 46.9768L8.033 49.8898L8.11442 51.9881L8.22571 53.6637L8.36566 55.0638L8.53259 56.2639L8.7253 57.3064L8.93993 58.2194L9.17576 59.0225L9.43061 59.7309L9.70233 60.3582L9.99091 60.9136L10.2956 61.4089L10.6179 61.8543L10.9617 62.2573L11.3317 62.628L11.7354 62.9718L12.1801 63.2941L12.6753 63.5988L13.2315 63.8867L13.8581 64.1584L14.5665 64.4132L15.3696 64.649L16.2826 64.8644L17.3251 65.0564L18.5252 65.2233L19.9262 65.364L21.6018 65.4753L23.6995 65.5567L26.6132 65.6066L35.2848 65.6234L43.9563 65.6066L46.8701 65.5567L48.9677 65.4753L50.6434 65.364L52.0444 65.2233L53.2445 65.0564L54.287 64.8644L55.2 64.649L56.003 64.4132L56.7115 64.1584L57.338 63.8867L57.8942 63.5988L58.3895 63.2941L58.8341 62.9718L59.2379 62.628L59.6079 62.2573C59.6079 62.2573 59.9516 61.8543 59.9516 61.8536L60.2739 61.4089L60.5786 60.9136L60.8672 60.3582L61.1389 59.7309L61.3938 59.0225L61.6296 58.2194L61.8442 57.3064L62.0362 56.2639L62.2041 55.0638L62.3441 53.6638L62.4554 51.9882L62.5368 49.8898L62.5867 46.9768L62.6035 38.3052L62.5903 31.5663V27.8246C62.5903 27.5623 62.7719 27.3359 63.0277 27.2781C63.9751 27.0605 64.8857 26.7455 65.7488 26.3446C65.8439 26.2991 65.9562 26.3051 66.047 26.36C66.1371 26.4149 66.1942 26.5118 66.1987 26.6173L66.25 29.5985L66.2669 38.3058L66.25 47.0132L66.1987 49.9936L66.1144 52.1821L65.9949 53.969L65.8417 55.5003L65.6541 56.8507L65.4305 58.0604L65.1718 59.1579L64.8772 60.1609L64.5453 61.0833L64.1767 61.9338L63.7687 62.7201L63.3211 63.4476L62.8324 64.1216L62.3005 64.7457L61.7238 65.3224L61.1004 65.8536L60.4264 66.343L59.6982 66.7906L58.9119 67.1979L58.0614 67.5672L57.1397 67.8992L56.1367 68.1938L55.0392 68.4525L53.8287 68.6753L52.479 68.8637L50.947 69.0169L49.1601 69.1356L46.9716 69.2207L43.9912 69.2712L35.2838 69.2888L26.5765 69.2712L23.596 69.2207L21.4076 69.1356L19.6207 69.0169L18.0886 68.8637L16.7389 68.6753L15.5285 68.4525L14.431 68.1938L13.4279 67.8992L12.5063 67.5672L11.6558 67.1979L10.8695 66.7906L10.1413 66.343L9.46728 65.8536L8.84389 65.3224L8.2672 64.7457L7.73533 64.1216L7.24657 63.4476L6.79901 62.7201L6.39095 61.9338L6.02239 61.0833L5.69045 60.1609L5.39585 59.1579L5.13714 58.0604L4.9136 56.8507L4.72595 55.5003L4.57274 53.969L4.45326 52.1821L4.36895 49.9936L4.31764 47.0132L4.30078 38.3058L4.31764 29.5985L4.36895 26.6173L4.45326 24.4295L4.57274 22.6426L4.72595 21.1106L4.9136 19.7602L5.13714 18.5505L5.39585 17.453L5.69045 16.4499L6.02239 15.5283L6.39095 14.6778L6.79901 13.8908L7.24657 13.1633L7.73533 12.4893L8.2672 11.8651L8.84389 11.2885L9.46728 10.7573L10.1413 10.2685L10.8695 9.82098L11.6558 9.41292L12.5063 9.04365L13.4279 8.71243L14.431 8.4171L15.5285 8.15911L16.7389 7.93557L18.0886 7.7472L19.6207 7.59399L21.4076 7.47523L23.596 7.3902L26.5765 7.33962L35.2838 7.32275L43.9912 7.33962L46.9724 7.3902C47.0779 7.39454 47.1745 7.45163 47.2297 7.54269C47.2846 7.63277 47.2904 7.74479 47.2451 7.8409C46.8442 8.70399 46.5292 9.6148 46.3109 10.5619C46.2539 10.8168 46.0267 10.9987 45.7651 10.9987C44.6814 10.9994 42.0299 10.9994 42.0299 10.9994L42.0305 10.9996Z"
    fill="#052533"
  />
<path
    d="M58.1254 14.4704C60.6156 13.3936 61.7359 12.8 61.7359 11.1071C61.7359 11.0189 61.7433 7.82703 61.7433 7.7376V7.17001L61.7359 7.17374C61.7359 7.17374 61.7359 7.17374 61.7359 7.1725C61.7359 7.08431 61.7433 6.52666 61.7433 6.43724V6.07085C61.7433 5.97646 61.6464 5.91436 61.5607 5.9541L60.5237 6.43475C58.4595 7.41965 57.9453 8.77094 57.9453 10.1098V14.3537C57.9453 14.4456 58.0409 14.5077 58.1254 14.4717V14.4704Z"
    fill="#052533"
  />
<path
    d="M57.1418 14.3689C56.065 11.8787 55.4713 10.7584 53.7785 10.7584C53.6903 10.7584 50.4984 10.751 50.409 10.751H49.8414L49.8451 10.7584C49.8451 10.7584 49.8451 10.7584 49.8426 10.7584C49.7545 10.7584 49.1968 10.751 49.1074 10.751H48.7422C48.6478 10.751 48.5857 10.8479 48.6255 10.9335L49.1061 11.9706C50.091 14.0348 51.4423 14.549 52.7812 14.549H57.0251C57.117 14.549 57.1791 14.4534 57.1431 14.3689H57.1418Z"
    fill="#052533"
  />
<path
    d="M57.0828 15.2387C54.5926 16.3155 53.4723 16.9092 53.4723 18.602C53.4723 18.6902 53.4648 21.8821 53.4648 21.9715V22.5391L53.4723 22.5354C53.4723 22.5354 53.4723 22.5354 53.4723 22.5366C53.4723 22.6248 53.4648 23.1825 53.4648 23.2719V23.6383C53.4648 23.7327 53.5617 23.7948 53.6474 23.755L54.6845 23.2744C56.7487 22.2895 57.2629 20.9382 57.2629 19.5993V15.3554C57.2629 15.2635 57.1672 15.2014 57.0828 15.2374V15.2387Z"
    fill="#052533"
  />
<path
    d="M66.0551 17.8054C65.0702 15.7412 63.7189 15.2271 62.3801 15.2271H58.1362C58.0443 15.2271 57.9822 15.3227 58.0182 15.4071C59.095 17.8973 59.6887 19.0176 61.3815 19.0176C61.4697 19.0176 64.6616 19.0251 64.751 19.0251H65.3186L65.3149 19.0176C65.3149 19.0176 65.3149 19.0176 65.3174 19.0176C65.4056 19.0176 65.9632 19.0251 66.0526 19.0251H66.419C66.5134 19.0251 66.5755 18.9282 66.5358 18.8425L66.0539 17.8054H66.0551Z"
    fill="#052533"
  />
<path
    d="M58.1434 19.6152C58.0701 19.6152 58.0117 19.6749 58.0117 19.7469C58.0117 21.9663 59.8114 23.766 62.0308 23.766C62.1041 23.766 62.1625 23.7064 62.1625 23.6343C62.1625 21.4149 60.3628 19.6152 58.1434 19.6152Z"
    fill="#052533"
  />
<path
    d="M57.0191 10.0939C57.0924 10.0939 57.1507 10.0343 57.1507 9.96222C57.152 7.74154 55.3523 5.94189 53.1317 5.94189C53.0584 5.94189 53 6.00151 53 6.07355C53 8.29298 54.7996 10.0926 57.0191 10.0926V10.0939Z"
    fill="#052533"
  />
<path
    d="M66.4175 10.2734C64.1981 10.2734 62.3984 12.0731 62.3984 14.2925C62.3984 14.3658 62.4581 14.4242 62.5301 14.4242C64.7495 14.4242 66.5492 12.6245 66.5492 10.4051C66.5492 10.3318 66.4896 10.2734 66.4175 10.2734Z"
    fill="#052533"
  />
<path
    d="M52.6324 15.2822C50.4129 15.2822 48.6133 17.0819 48.6133 19.3026C48.6133 19.3758 48.6729 19.4342 48.7449 19.4342C50.9644 19.4342 52.764 17.6346 52.764 15.4151C52.764 15.3418 52.7044 15.2835 52.6324 15.2835V15.2822Z"
    fill="#052533"
  />
</svg>
