<svg width="103" height="103" viewBox="0 0 103 103" fill="none" xmlns="http://www.w3.org/2000/svg">
<g id="Group">
<path
      id="Vector"
      d="M54.974 22.2056C61.542 22.9664 67.6614 25.9197 72.3427 30.5879C77.0248 35.2565 79.9954 41.367 80.7755 47.9331C80.8293 48.3807 81.0456 48.793 81.383 49.0919C81.7207 49.3909 82.1561 49.5561 82.6068 49.5561H101.145C101.658 49.5538 102.148 49.339 102.497 48.9632C102.846 48.587 103.024 48.0833 102.989 47.5715C102 35.2697 96.6578 23.7243 87.9225 15.006C79.187 6.28818 67.6303 0.968963 55.3265 0.00496281C54.8147 -0.0326932 54.3102 0.145215 53.9344 0.495265C53.559 0.845315 53.3461 1.336 53.3477 1.84939V20.3739C53.3477 20.8254 53.5133 21.2612 53.813 21.5989C54.1127 21.9363 54.5262 22.1522 54.9742 22.2056L54.974 22.2056Z"
      fill="#F8D4A2"
    />
<path
      id="Vector_2"
      d="M102.505 53.831C102.156 53.4571 101.668 53.2446 101.156 53.2446H82.6336C82.181 53.2442 81.7441 53.4106 81.406 53.7115C81.0679 54.0124 80.8523 54.4273 80.8005 54.8769C79.9989 61.4545 77.0229 67.5752 72.3443 72.2683C67.666 76.9603 61.5534 79.9552 54.9785 80.7759C54.5301 80.8293 54.117 81.0453 53.8169 81.3826C53.5172 81.7204 53.3516 82.1561 53.3516 82.6076V101.138C53.3504 101.652 53.5629 102.142 53.9387 102.493C54.3141 102.843 54.8186 103.02 55.3308 102.982C67.669 102.021 79.2547 96.6769 87.9966 87.9175C96.7383 79.1578 102.058 67.5604 102.995 55.2212C103.031 54.7101 102.853 54.2068 102.504 53.8321L102.505 53.831Z"
      fill="#D7F7F6"
    />
<path
      id="Vector_3"
      d="M48.0302 80.7758C41.4554 79.9547 35.3438 76.9598 30.6654 72.2678C25.9869 67.5754 23.0109 61.4543 22.2089 54.8774C22.157 54.4279 21.9418 54.0137 21.6041 53.7124C21.2663 53.4115 20.8298 53.2451 20.3776 53.2451H1.84907C1.33649 53.2436 0.846213 53.4561 0.496517 53.8307C0.146466 54.2054 -0.0318245 54.7091 0.00467962 55.2205C0.942239 67.5607 6.26409 79.1592 15.0077 87.9169C23.7513 96.6758 35.3402 102.018 47.6784 102.977C48.1899 103.012 48.6928 102.833 49.0683 102.484C49.4433 102.134 49.6573 101.645 49.6592 101.133V82.608C49.6592 82.1562 49.4932 81.7201 49.1931 81.3827C48.893 81.0449 48.4792 80.8294 48.0304 80.7763L48.0302 80.7758Z"
      fill="#769099"
    />
<path
      id="Vector_4"
      d="M1.86311 49.5555H20.3995C20.8506 49.5559 21.2863 49.391 21.624 49.0921C21.9622 48.7928 22.1785 48.3805 22.2327 47.9324C22.8924 42.5514 25.0297 37.4583 28.4075 33.2177C28.6884 32.863 28.829 32.4177 28.8029 31.9661C28.7768 31.5146 28.5854 31.0881 28.2657 30.7684L15.1543 17.657C14.792 17.2943 14.2955 17.0983 13.7833 17.1164C13.2711 17.1348 12.7893 17.3654 12.4538 17.7527C5.19994 26.0893 0.839513 36.5507 0.0240477 47.5708C-0.0116872 48.0819 0.165834 48.5852 0.513966 48.961C0.862482 49.3368 1.35051 49.552 1.86311 49.5555Z"
      fill="#16B7B3"
    />
<path
      id="Vector_5"
      d="M47.677 0.00449582C36.6677 0.795665 26.2102 5.12727 17.8657 12.3526C17.4799 12.6892 17.2506 13.1702 17.2317 13.6821C17.2129 14.1939 17.4062 14.6904 17.7662 15.0546L30.8815 28.1719C31.2005 28.4908 31.6254 28.6818 32.0758 28.7087C32.5262 28.7352 32.9707 28.5961 33.3254 28.3175C37.5697 24.9642 42.658 22.8489 48.0284 22.2053C48.4768 22.1519 48.8898 21.9359 49.19 21.5985C49.4897 21.2608 49.6553 20.825 49.6553 20.3736V1.84312C49.6519 1.33169 49.4374 0.844494 49.0628 0.496372C48.6882 0.14824 48.1867 -0.030051 47.6764 0.00415135L47.677 0.00449582Z"
      fill="#124944"
    />
</g>
</svg>
