<svg width="286" height="322" viewBox="0 0 286 322" fill="none" xmlns="http://www.w3.org/2000/svg">
<path
    d="M250.484 11.731L273.946 11.731L273.953 34.9453"
    stroke="#16B7B3"
    stroke-width="4"
    stroke-miterlimit="10"
    stroke-linecap="round"
  />
<path
    d="M273.945 11.7305L250.73 34.9448"
    stroke="#16B7B3"
    stroke-width="4"
    stroke-miterlimit="10"
  />
<path
    d="M112.09 321.978C66.2359 321.978 28.9219 296.789 28.9219 265.824C28.9219 234.858 66.2251 209.669 112.09 209.669C157.955 209.669 195.248 234.858 195.248 265.824C195.248 296.789 157.945 321.978 112.09 321.978ZM112.09 217.702C70.6626 217.702 36.9656 239.285 36.9656 265.824C36.9656 292.362 70.6626 313.945 112.09 313.945C153.518 313.945 187.215 292.362 187.215 265.824C187.215 239.285 153.518 217.702 112.09 217.702Z"
    fill="#052533"
  />
<path
    d="M112.09 267.215C66.2359 267.215 28.9219 242.026 28.9219 211.061C28.9219 180.095 66.2251 154.906 112.09 154.906C157.955 154.906 195.248 180.095 195.248 211.061C195.248 242.026 157.945 267.215 112.09 267.215ZM112.09 162.939C70.6626 162.939 36.9656 184.522 36.9656 211.061C36.9656 237.6 70.6626 259.183 112.09 259.183C153.518 259.183 187.215 237.6 187.215 211.061C187.215 184.522 153.518 162.939 112.09 162.939Z"
    fill="#4CC1BB"
  />
<path
    d="M112.086 213.674C155.795 213.674 191.228 189.548 191.228 159.787C191.228 130.026 155.795 105.899 112.086 105.899C68.378 105.899 32.9453 130.026 32.9453 159.787C32.9453 189.548 68.378 213.674 112.086 213.674Z"
    fill="#D7F7F6"
  />
<path
    d="M112.09 162.767C66.2359 162.767 28.9219 137.578 28.9219 106.613C28.9219 75.6471 66.2251 50.458 112.09 50.458C157.955 50.458 195.248 75.6471 195.248 106.613C195.248 137.578 157.945 162.767 112.09 162.767ZM112.09 58.4909C70.6626 58.4909 36.9656 80.0739 36.9656 106.613C36.9656 133.151 70.6626 154.734 112.09 154.734C153.518 154.734 187.215 133.151 187.215 106.613C187.215 80.0739 153.518 58.4909 112.09 58.4909Z"
    fill="#FFBD8B"
  />
<path
    d="M203.199 148.612L197.714 133.496C196.775 130.905 198.114 128.044 200.705 127.104L215.821 121.619C218.412 120.68 221.273 122.019 222.212 124.61L227.697 139.726C228.637 142.317 227.298 145.178 224.706 146.118L209.591 151.602C207 152.542 204.138 151.203 203.199 148.612ZM208.014 138.311C208.954 140.903 211.815 142.242 214.406 141.302C216.997 140.363 218.336 137.502 217.397 134.91C216.458 132.319 213.596 130.98 211.005 131.92C208.414 132.859 207.075 135.72 208.014 138.311Z"
    fill="#052533"
  />
<path
    d="M14.0799 203.149C13.5669 200.991 11.4016 199.657 9.24352 200.17C7.08542 200.683 5.75176 202.848 6.26469 205.006L9.58524 218.977C10.0982 221.135 12.2635 222.469 14.4216 221.956C16.5797 221.443 17.9133 219.277 17.4004 217.119L14.0799 203.149Z"
    fill="#052533"
  />
<path
    d="M17.8797 205.496L3.90791 208.812C1.74963 209.324 0.415208 211.489 0.927392 213.647C1.43958 215.805 3.60441 217.14 5.76269 216.628L19.7345 213.312C21.8928 212.8 23.2272 210.635 22.715 208.477C22.2028 206.318 20.038 204.984 17.8797 205.496Z"
    fill="#052533"
  />
<path
    d="M90.9039 18.0042C89.6734 16.1585 87.1797 15.6598 85.3341 16.8902C83.4884 18.1207 82.9897 20.6144 84.2201 22.46L93.6169 36.5553C94.8473 38.4009 97.341 38.8997 99.1867 37.6692C101.032 36.4388 101.531 33.9451 100.301 32.0994L90.9039 18.0042Z"
    fill="#052533"
  />
<path
    d="M138.39 18.0004L128.994 32.0956C127.763 33.9413 128.262 36.435 130.108 37.6654C131.953 38.8959 134.447 38.3971 135.677 36.5514L145.074 22.4562C146.305 20.6106 145.806 18.1169 143.96 16.8864C142.114 15.656 139.621 16.1547 138.39 18.0004Z"
    fill="#052533"
  />
<path
    d="M118.662 11.0164C118.662 8.79822 116.864 7 114.645 7C112.427 7 110.629 8.79822 110.629 11.0164V29.6951C110.629 31.9133 112.427 33.7115 114.645 33.7115C116.864 33.7115 118.662 31.9133 118.662 29.6951V11.0164Z"
    fill="#052533"
  />
</svg>
