<svg width="500" height="497" viewBox="0 0 500 497" fill="none" xmlns="http://www.w3.org/2000/svg">
<path
    d="M265.094 237.748C334.511 207.731 365.74 191.182 365.74 143.992C365.74 141.534 365.948 52.5563 365.948 50.0635V34.2414L365.74 34.3452C365.74 34.3452 365.74 34.3452 365.74 34.3106C365.74 31.8525 365.948 16.3073 365.948 13.8145V3.60112C365.948 0.969872 363.247 -0.761216 360.858 0.34668L331.949 13.7453C274.408 41.2003 260.074 78.8688 260.074 116.191V234.494C260.074 237.056 262.74 238.787 265.094 237.783V237.748Z"
    fill="#124944"
  />
<path
    d="M237.749 234.91C207.732 165.494 191.183 134.265 143.994 134.265C141.536 134.265 52.5577 134.057 50.065 134.057H34.2428L34.3467 134.265C34.3467 134.265 34.3467 134.265 34.2775 134.265C31.8193 134.265 16.2742 134.057 13.7814 134.057H3.60259C0.971336 134.057 -0.759751 136.758 0.348145 139.147L13.7468 168.056C41.2018 225.597 78.8703 239.93 116.193 239.93H234.495C237.057 239.93 238.788 237.265 237.784 234.91H237.749Z"
    fill="#124944"
  />
<path
    d="M236.154 259.144C166.737 289.161 135.509 305.71 135.509 352.9C135.509 355.358 135.301 444.336 135.301 446.828V462.651L135.509 462.547C135.509 462.547 135.509 462.547 135.509 462.581C135.509 465.04 135.301 480.585 135.301 483.077V493.291C135.301 495.922 138.001 497.653 140.39 496.545L169.299 483.147C226.841 455.692 241.174 418.023 241.174 380.701V262.398C241.174 259.836 238.508 258.105 236.154 259.109V259.144Z"
    fill="#124944"
  />
<path
    d="M486.26 330.707C458.805 273.166 421.137 258.833 383.815 258.833H265.512C262.95 258.833 261.219 261.498 262.223 263.853C292.24 333.269 308.789 364.498 355.979 364.498C358.437 364.498 447.415 364.706 449.908 364.706H465.73L465.626 364.498C465.626 364.498 465.626 364.498 465.695 364.498C468.153 364.498 483.698 364.706 486.191 364.706H496.405C499.036 364.706 500.767 362.005 499.659 359.616L486.226 330.707H486.26Z"
    fill="#124944"
  />
<path
    d="M265.619 381.151C263.576 381.151 261.949 382.813 261.949 384.821C261.949 446.69 312.116 496.857 373.985 496.857C376.028 496.857 377.655 495.195 377.655 493.187C377.655 431.318 327.488 381.151 265.619 381.151Z"
    fill="#F8D4A2"
  />
<path
    d="M234.352 115.74C236.395 115.74 238.022 114.079 238.022 112.071C238.057 50.1669 187.89 0 125.986 0C123.944 0 122.316 1.66184 122.316 3.6699C122.316 65.539 172.483 115.706 234.352 115.706V115.74Z"
    fill="#F8D4A2"
  />
<path
    d="M496.306 120.76C434.436 120.76 384.27 170.927 384.27 232.796C384.27 234.839 385.931 236.466 387.939 236.466C449.809 236.466 499.975 186.299 499.975 124.43C499.975 122.387 498.314 120.76 496.306 120.76Z"
    fill="#F8D4A2"
  />
<path
    d="M112.036 260.391C50.1669 260.391 0 310.558 0 372.461C0 374.504 1.66184 376.131 3.66991 376.131C65.539 376.131 115.706 325.964 115.706 264.095C115.706 262.052 114.044 260.425 112.036 260.425V260.391Z"
    fill="#F8D4A2"
  />
</svg>
