<svg width="112" height="113" viewBox="0 0 112 113" fill="none" xmlns="http://www.w3.org/2000/svg">
<g id="Group">
<path
      id="Vector"
      d="M101.19 10.8262C94.208 3.84497 84.9251 0 75.0531 0C65.1796 0 55.8983 3.84445 48.9159 10.8262C35.8618 23.8803 34.6327 44.3462 45.2233 58.7984L37.499 66.5227C35.367 66.4319 33.2052 67.1563 31.5071 68.7097L27.0987 72.7434C26.4302 73.3544 26.3844 74.3924 26.9953 75.0621C27.6075 75.7306 28.6455 75.7764 29.314 75.1654L33.7225 71.1316C35.7288 69.2959 38.8079 69.3644 40.7308 71.2872C42.6536 73.2101 42.7221 76.2893 40.8863 78.2955L25.3088 95.3221L16.696 86.7093L24.0318 79.9971C24.7003 79.385 24.7461 78.3482 24.1351 77.6785C23.5241 77.01 22.4862 76.9642 21.8164 77.5752L3.26731 94.5478C1.22373 96.4171 0.0637385 98.9724 0.00254414 101.742C-0.0586502 104.511 0.985854 107.115 2.94475 109.073C4.84893 110.977 7.36173 112.018 10.0455 112.018C10.1224 112.018 10.1998 112.016 10.2768 112.015C13.046 111.954 15.6013 110.794 17.4707 108.75L43.3092 80.5098C44.8626 78.8122 45.5857 76.6503 45.4962 74.5179L53.218 66.7961C59.5145 71.4263 67.0925 73.9281 75.054 73.9281C84.9275 73.9281 94.2099 70.0836 101.191 63.1019C115.603 48.689 115.603 25.2392 101.191 10.8264L101.19 10.8262ZM23.0908 97.7439L17.8781 103.441L8.57462 94.1373L14.2715 88.9246L23.0908 97.7439ZM10.2027 108.734C8.34592 108.776 6.58467 108.072 5.26515 106.752C3.94595 105.433 3.24263 103.679 3.2836 101.814C3.32452 99.9479 4.10646 98.2281 5.48275 96.9684L6.15369 96.355L15.6627 105.864L15.0493 106.535C13.7885 107.911 12.0673 108.693 10.2028 108.734L10.2027 108.734ZM44.4871 70.8817C44.1111 70.1933 43.6334 69.5463 43.0508 68.9637C42.4682 68.3811 41.8212 67.9034 41.1328 67.5274L47.2924 61.3667C47.8114 61.9566 48.3502 62.5356 48.9142 63.0991C49.477 63.6619 50.0543 64.2007 50.6454 64.7221L44.4871 70.8817ZM98.8691 60.7804C92.5078 67.1417 84.0497 70.6454 75.0531 70.6454C66.0571 70.6454 57.5982 67.1417 51.2371 60.7804C38.1052 47.6485 38.1052 26.2803 51.2371 13.1473C57.5984 6.78603 66.0565 3.2823 75.0531 3.2823C84.0491 3.2823 92.508 6.78603 98.8691 13.1473C112.001 26.2792 112.001 47.6474 98.8691 60.7804Z"
      fill="#124944"
    />
<path
      id="Vector_2"
      d="M101.791 38.2898C100.891 38.1914 100.08 38.84 99.9801 39.7398C99.3476 45.4512 96.8612 50.6231 92.7886 54.694C88.0528 59.4299 81.7549 62.0386 75.0568 62.0386C68.358 62.0386 62.0618 59.4299 57.326 54.694C52.5889 49.9582 49.9814 43.6604 49.9814 36.9622C49.9814 30.2634 52.5902 23.9672 57.326 19.2304C62.0618 14.4946 68.3596 11.8858 75.0568 11.8858C81.7556 11.8858 88.0517 14.4946 92.7886 19.2304C96.5662 23.008 99.0004 27.7848 99.8269 33.0447C99.9675 33.9397 100.807 34.5519 101.703 34.4113C102.598 34.2708 103.21 33.4305 103.069 32.5355C102.133 26.585 99.3816 21.1824 95.1085 16.9102C89.7527 11.5544 82.6311 8.60498 75.0564 8.60498C67.4818 8.60498 60.3594 11.5549 55.0044 16.9102C49.6487 22.2659 46.6992 29.3876 46.6992 36.9622C46.6992 44.5368 49.6491 51.6592 55.0044 57.0142C60.3613 62.37 67.4818 65.3194 75.0564 65.3194C82.6311 65.3194 89.7535 62.3696 95.1085 57.0142C99.6478 52.4749 102.537 46.4681 103.241 40.0997C103.34 39.2015 102.691 38.39 101.791 38.2903L101.791 38.2898Z"
      fill="#124944"
    />
</g>
</svg>
