<svg width="87" height="111" viewBox="0 0 87 111" fill="none" xmlns="http://www.w3.org/2000/svg">
<g id="Group">
<path
      id="Vector"
      fill-rule="evenodd"
      clip-rule="evenodd"
      d="M43.5 60.817C55.5125 60.817 65.25 51.0788 65.25 39.0659C65.25 27.0534 55.5122 17.3159 43.5 17.3159C31.4875 17.3159 21.75 27.0542 21.75 39.0659C21.75 51.0784 31.4882 60.817 43.5 60.817ZM43.5 55.3795C52.5097 55.3795 59.8136 48.0759 59.8136 39.0659C59.8136 30.0566 52.5099 22.7534 43.5 22.7534C34.4907 22.7534 27.1875 30.0571 27.1875 39.0659C27.1875 48.0756 34.4912 55.3795 43.5 55.3795Z"
      fill="#124944"
    />
<path
      id="Vector_2"
      fill-rule="evenodd"
      clip-rule="evenodd"
      d="M43.5013 100.125C53.4506 100.125 83.2994 62.6386 83.2994 40.658C83.2994 18.6785 65.4818 0.859863 43.5013 0.859863C21.5207 0.859863 3.70312 18.6785 3.70312 40.658C3.70312 62.6375 33.5517 100.125 43.5013 100.125ZM73.5163 57.0031C76.3293 50.7117 77.8616 45.0569 77.8616 40.658C77.8616 21.6811 62.4778 6.29736 43.5009 6.29736C24.5241 6.29736 9.1403 21.6811 9.1403 40.658C9.1403 45.0564 10.6726 50.7114 13.4861 57.0031C16.2609 63.2091 20.1033 69.6377 24.2871 75.4613C28.4769 81.2943 32.9009 86.3689 36.764 89.9207C38.7024 91.7023 40.3902 92.9988 41.7444 93.8165C42.7588 94.4291 43.3213 94.6113 43.5005 94.6653C43.6794 94.6113 44.2418 94.4291 45.2563 93.8165C46.6105 92.9988 48.2983 91.7023 50.2367 89.9207C54.1003 86.3698 58.5242 81.2946 62.7147 75.4613C66.8986 69.6372 70.7405 63.2095 73.5157 57.0031H73.5163Z"
      fill="#124944"
    />
<path
      id="Vector_3"
      d="M72.8982 85.849C71.2516 85.1591 70.6046 83.1213 71.6446 81.6697C72.3421 80.6961 73.6174 80.2798 74.721 80.7458C82.3212 83.9568 87 88.3366 87 93.165C87 103.014 67.524 111 43.5 111C19.476 111 0 103.015 0 93.165C0 88.3371 4.67962 83.9569 12.28 80.7458C13.3833 80.2797 14.659 80.6961 15.3565 81.6697C16.3964 83.1213 15.7494 85.1591 14.1025 85.849C11.5765 86.9072 9.14413 88.2457 7.20284 90.1272C5.67947 91.6042 5.43739 92.6293 5.43739 93.165C5.43739 93.7011 5.67953 94.7261 7.20284 96.2028C8.74274 97.6957 11.2551 99.2904 14.8035 100.745C21.874 103.644 32.0164 105.562 43.5004 105.562C54.9844 105.562 65.1265 103.644 72.1974 100.745C75.7458 99.2904 78.258 97.6957 79.798 96.2028C81.3218 94.7262 81.5635 93.7012 81.5635 93.165C81.5635 92.6293 81.3218 91.6042 79.798 90.1272C77.8571 88.2457 75.4251 86.9077 72.8991 85.8494L72.8982 85.849Z"
      fill="#124944"
    />
</g>
</svg>
