<svg width="8" height="12" viewBox="0 0 8 12" fill="none" xmlns="http://www.w3.org/2000/svg">
<path
    d="M5.00848 10.7406C5.00848 11.4365 4.44434 12.0007 3.74838 12.0007C3.05242 12.0007 2.48828 11.4365 2.48828 10.7406C2.48828 10.0446 3.05242 9.48047 3.74838 9.48047C4.44434 9.48047 5.00848 10.0447 5.00848 10.7406Z"
    fill="#16B7B3"
  />
<path
    d="M3.74852 0C1.68165 0 0 1.68154 0 3.74875C0 3.82409 0.0610673 3.88503 0.13641 3.88503H2.17406C2.2494 3.88503 2.31047 3.8241 2.31047 3.74875C2.31047 2.955 2.95552 2.30931 3.74835 2.30931C4.54114 2.30931 5.18633 2.95505 5.18633 3.74875C5.18633 4.13208 5.03686 4.49262 4.76298 4.76636C4.73099 4.80008 4.65339 4.86289 4.5783 4.92344L4.53512 4.95837C3.85648 5.50824 2.59336 6.53169 2.59336 8.73934C2.59336 8.81456 2.6543 8.87549 2.72965 8.87549H4.76629C4.84164 8.87549 4.90258 8.81456 4.90258 8.73934C4.90258 7.63149 5.45483 7.18624 5.99923 6.74725C6.14137 6.6311 6.27587 6.52152 6.39788 6.39898C7.1063 5.69057 7.49639 4.74955 7.49639 3.74912C7.49678 1.68169 5.8153 3.89096e-05 3.74843 3.89096e-05L3.74852 0Z"
    fill="#16B7B3"
  />
</svg>
