<svg width="63" height="39" viewBox="0 0 63 39" fill="none" xmlns="http://www.w3.org/2000/svg">
<g clip-path="url(#clip0_1895_7)">
<path
      d="M12.3149 0H28.0104C30.2013 0 31.564 1.76881 31.0529 3.94609L23.7456 35.0207C23.2299 37.1904 21.0362 38.9608 18.8437 38.9608H3.14976C0.961868 38.9608 -0.403891 37.1904 0.107217 35.0207L7.41766 3.94609C7.92877 1.76881 10.1212 0 12.3149 0Z"
      fill="#E21836"
    />
<path
      d="M26.7045 0H44.754C46.9445 0 45.9567 1.76881 45.4414 3.94609L38.1352 35.0207C37.6226 37.1904 37.7825 38.9608 35.5873 38.9608H17.5379C15.3427 38.9608 13.9842 37.1904 14.4999 35.0207L21.8058 3.94609C22.3245 1.76881 24.5124 0 26.7045 0Z"
      fill="#00447C"
    />
<path
      d="M44.0378 0H59.7333C61.9273 0 63.29 1.76881 62.7747 3.94609L55.4684 35.0207C54.9527 37.1904 52.7576 38.9608 50.5639 38.9608H34.8757C32.6805 38.9608 31.319 37.1904 31.8332 35.0207L39.1405 3.94609C39.6517 1.76881 41.8426 0 44.0378 0Z"
      fill="#007B84"
    />
<path
      d="M16.4132 9.95819C14.7992 9.97448 14.3225 9.95819 14.1702 9.92257C14.1117 10.198 13.0225 15.1744 13.0195 15.1786C12.785 16.1854 12.6143 16.9031 12.0347 17.3665C11.7057 17.6359 11.3216 17.7659 10.8763 17.7659C10.1606 17.7659 9.74356 17.4139 9.67355 16.7462L9.66016 16.5169C9.66016 16.5169 9.87822 15.1684 9.87822 15.1608C9.87822 15.1608 11.0213 10.6258 11.226 10.0264C11.2367 9.99229 11.2398 9.97448 11.2424 9.95819C9.01745 9.97751 8.62302 9.95819 8.59586 9.92257C8.58094 9.97145 8.52585 10.2526 8.52585 10.2526L7.35865 15.3639L7.25841 15.7974L7.06445 17.2153C7.06445 17.6359 7.14785 17.9792 7.31389 18.2695C7.84565 19.1899 9.36252 19.3278 10.2206 19.3278C11.3262 19.3278 12.3634 19.0951 13.0642 18.6704C14.2808 17.9584 14.5991 16.8455 14.8829 15.8565L15.0145 15.3491C15.0145 15.3491 16.1921 10.6391 16.3922 10.0264C16.3998 9.99229 16.4029 9.97448 16.4132 9.95819ZM20.4197 13.7578C20.1358 13.7578 19.6171 13.826 19.1511 14.0522C18.982 14.1382 18.8221 14.2375 18.6534 14.3364L18.8057 13.7919L18.7223 13.7002C17.7341 13.8984 17.513 13.9249 16.6002 14.0522L16.5237 14.1026C16.4177 14.973 16.3236 15.6274 15.9307 17.3382C15.7811 17.9687 15.6258 18.6053 15.4701 19.2343L15.5121 19.3143C16.4475 19.2654 16.7314 19.2654 17.5443 19.2787L17.6101 19.2078C17.7134 18.6838 17.7268 18.561 17.9556 17.4996C18.0631 16.9964 18.2873 15.8907 18.3978 15.497C18.601 15.4038 18.8014 15.3121 18.9927 15.3121C19.4484 15.3121 19.3929 15.7058 19.3753 15.8627C19.3558 16.1261 19.1897 16.9862 19.0195 17.7247L18.9059 18.2014C18.8267 18.5534 18.7399 18.8956 18.6607 19.2446L18.6951 19.3143C19.6171 19.2654 19.8983 19.2654 20.6856 19.2787L20.7782 19.2078C20.9205 18.3894 20.9622 18.1703 21.2147 16.9786L21.3417 16.4311C21.5884 15.3595 21.7124 14.8161 21.5257 14.3735C21.3283 13.8775 20.8547 13.7578 20.4197 13.7578ZM24.8954 14.8797C24.4053 14.973 24.0928 15.0351 23.7821 15.0753C23.4742 15.1241 23.1739 15.1685 22.7002 15.2337L22.6628 15.2674L22.6283 15.2943C22.579 15.6436 22.5445 15.9456 22.4791 16.3007C22.4237 16.6679 22.3383 17.0851 22.1995 17.6845C22.092 18.1434 22.0365 18.3033 21.9753 18.4647C21.9156 18.6261 21.8498 18.783 21.7289 19.2343L21.7572 19.276L21.7809 19.3143C22.2236 19.2934 22.5132 19.2786 22.8108 19.276C23.1081 19.2654 23.416 19.276 23.8927 19.2786L23.9344 19.2449L23.9792 19.2078C24.048 18.8008 24.0584 18.6913 24.1004 18.4928C24.1421 18.2798 24.2141 17.985 24.3904 17.1976C24.4738 16.8278 24.5668 16.4591 24.6532 16.0817C24.7431 15.7058 24.8373 15.3356 24.9268 14.9658L24.9134 14.921L24.8954 14.8797ZM24.9058 13.367C24.4605 13.1067 23.679 13.1893 23.1529 13.5489C22.6284 13.9013 22.5688 14.4015 23.0125 14.6652C23.4502 14.9183 24.2348 14.8429 24.7563 14.4803C25.2796 14.1203 25.345 13.6247 24.9058 13.367ZM27.5989 19.3958C28.4999 19.3958 29.4234 19.1499 30.1185 18.4201C30.6533 17.8282 30.8985 16.9476 30.9835 16.585C31.2601 15.3831 31.0447 14.8219 30.7742 14.4801C30.3633 13.9591 29.6372 13.792 28.884 13.792C28.431 13.792 27.3522 13.8363 26.5094 14.6059C25.9042 15.161 25.6245 15.9143 25.4558 16.6365C25.2855 17.3724 25.0897 18.6971 26.3196 19.1901C26.6991 19.3515 27.2462 19.3958 27.5989 19.3958ZM27.5285 16.6915C27.7363 15.7813 27.9815 15.0174 28.6074 15.0174C29.0978 15.0174 29.1334 15.5858 28.9153 16.499C28.8763 16.7017 28.6973 17.4554 28.4551 17.7763C28.286 18.0132 28.0859 18.1568 27.8648 18.1568C27.799 18.1568 27.4076 18.1568 27.4015 17.5812C27.3985 17.297 27.457 17.0067 27.5285 16.6915ZM33.2356 19.2788L33.306 19.2079C33.4059 18.6839 33.4223 18.5607 33.6435 17.4998C33.754 16.9965 33.9828 15.8909 34.0903 15.4972C34.2938 15.4036 34.4908 15.3119 34.6882 15.3119C35.1408 15.3119 35.0857 15.7056 35.0677 15.8624C35.0513 16.1262 34.8853 16.9859 34.712 17.7245L34.6045 18.2011C34.5222 18.5535 34.4327 18.8953 34.3535 19.2447L34.3879 19.3144C35.313 19.2655 35.5834 19.2655 36.3754 19.2788L36.471 19.2079C36.6099 18.3891 36.6474 18.1701 36.9075 16.9787L37.0315 16.4308C37.2794 15.3592 37.4048 14.8162 37.2212 14.3737C37.0181 13.8776 36.5414 13.7579 36.1125 13.7579C35.8283 13.7579 35.3068 13.8257 34.8436 14.0523C34.6779 14.1383 34.5119 14.2372 34.3489 14.3365L34.4908 13.792L34.4147 13.6999C33.4269 13.8985 33.2012 13.925 32.2896 14.0523L32.2195 14.1027C32.109 14.9731 32.0191 15.6271 31.6262 17.3383C31.4766 17.9689 31.3213 18.6055 31.166 19.2345L31.2077 19.3144C32.1446 19.2655 32.4242 19.2655 33.2356 19.2788ZM40.0321 19.3142C40.0903 19.0331 40.4357 17.3666 40.4388 17.3666C40.4388 17.3666 40.733 16.1438 40.7509 16.0995C40.7509 16.0995 40.8435 15.9721 40.9361 15.9217H41.0723C42.3573 15.9217 43.8084 15.9217 44.9458 15.093C45.7197 14.5247 46.2488 13.6853 46.4848 12.6653C46.546 12.4152 46.5912 12.1177 46.5912 11.8203C46.5912 11.4296 46.512 11.0431 46.2832 10.7411C45.7033 9.93742 44.5483 9.92265 43.215 9.91658C43.2108 9.91658 42.5578 9.92265 42.5578 9.92265C40.8512 9.94349 40.1668 9.93742 39.8856 9.90332C39.8619 10.0265 39.8171 10.2455 39.8171 10.2455C39.8171 10.2455 39.2058 13.0518 39.2058 13.0563C39.2058 13.0563 37.7428 19.0228 37.674 19.304C39.1641 19.2862 39.775 19.2862 40.0321 19.3142ZM41.1649 14.3291C41.1649 14.3291 41.8149 11.5285 41.8118 11.5391L41.8328 11.3955L41.842 11.286L42.1018 11.3125C42.1018 11.3125 43.4423 11.4266 43.4737 11.4296C44.0027 11.6323 44.2208 12.1549 44.0685 12.8369C43.9297 13.4603 43.5215 13.9843 42.997 14.2374C42.5651 14.4519 42.036 14.4697 41.4908 14.4697H41.1381L41.1649 14.3291ZM45.2118 16.7434C45.04 17.4686 44.8426 18.7933 46.0665 19.2655C46.4567 19.4299 46.8063 19.4788 47.1617 19.461C47.537 19.4409 47.8848 19.2545 48.2069 18.9862C48.1778 19.0965 48.1488 19.2067 48.1197 19.3174L48.1752 19.3882C49.0554 19.3515 49.3286 19.3515 50.2823 19.3587L50.3688 19.2935C50.508 18.4826 50.6393 17.6952 51.0012 16.1439C51.1775 15.4008 51.3535 14.665 51.5345 13.9249L51.5062 13.8435C50.5214 14.0242 50.2582 14.0629 49.311 14.1959L49.2391 14.2538C49.2295 14.3292 49.2196 14.4016 49.2104 14.474C49.0631 14.2383 48.8496 14.0371 48.5202 13.9117C48.099 13.7476 47.1097 13.959 46.2593 14.726C45.6617 15.2735 45.3748 16.0238 45.2118 16.7434ZM47.28 16.7877C47.4907 15.8938 47.7329 15.1375 48.3603 15.1375C48.757 15.1375 48.9659 15.5001 48.9235 16.1185C48.8898 16.2727 48.8534 16.4353 48.8102 16.6191C48.7475 16.8847 48.6794 17.148 48.6132 17.4118C48.5459 17.5921 48.4674 17.7623 48.3814 17.8756C48.2199 18.1022 47.8358 18.2427 47.6147 18.2427C47.552 18.2427 47.1648 18.2427 47.1514 17.6774C47.1484 17.3959 47.2069 17.106 47.28 16.7877ZM58.08 13.8362L58.0038 13.7502C57.0294 13.9457 56.8531 13.9768 55.9579 14.0965L55.8921 14.1617C55.889 14.1723 55.8863 14.1886 55.8817 14.2034L55.8787 14.1886C55.2123 15.7115 55.2318 15.383 54.6893 16.5819C54.6862 16.5273 54.6862 16.4932 54.6832 16.4353L54.5474 13.8362L54.462 13.7502C53.4414 13.9457 53.4173 13.9768 52.4746 14.0965L52.4012 14.1617C52.3908 14.1928 52.3908 14.2269 52.3847 14.264L52.3908 14.2773C52.5087 14.8737 52.4804 14.7407 52.5986 15.682C52.6537 16.1439 52.7271 16.6084 52.7822 17.0646C52.8752 17.8282 52.9272 18.2041 53.0408 19.3692C52.4042 20.4098 52.2535 20.8035 51.6406 21.7167L51.6448 21.7258L51.2133 22.4018C51.164 22.473 51.1192 22.5219 51.0565 22.5427C50.9876 22.5764 50.8981 22.5825 50.7737 22.5825H50.5346L50.1792 23.7534L51.3985 23.7742C52.1142 23.7712 52.5641 23.4396 52.8063 22.994L53.573 21.6928H53.5607L53.6414 21.6011C54.1571 20.5015 58.08 13.8362 58.08 13.8362ZM45.2118 29.2138H44.6945L46.6089 22.9423H47.244L47.4456 22.2962L47.4651 23.0147C47.4414 23.4588 47.7941 23.8525 48.7207 23.7873H49.7922L50.161 22.5797H49.7578C49.526 22.5797 49.4185 22.5217 49.4319 22.3974L49.4123 21.6665H47.428V21.6702C46.7864 21.6835 44.8705 21.7313 44.4826 21.8336C44.0132 21.9533 43.5185 22.3057 43.5185 22.3057L43.7129 21.6589H41.8567L41.4699 22.9423L39.5299 29.3097H39.1535L38.7843 30.5086H42.4814L42.3574 30.9084H44.1792L44.3001 30.5086H44.8112L45.2118 29.2138ZM43.6949 24.2166C43.3976 24.2981 42.8445 24.5451 42.8445 24.5451L43.3364 22.9423H44.8112L44.4554 24.1101C44.4554 24.1101 43.9998 24.1367 43.6949 24.2166ZM43.7232 26.5064C43.7232 26.5064 43.2599 26.564 42.955 26.6322C42.6547 26.7224 42.0916 27.0066 42.0916 27.0066L42.5996 25.3386H44.0821L43.7232 26.5064ZM42.8969 29.2286H41.4175L41.8463 27.8209H43.3211L42.8969 29.2286ZM46.4595 25.3386H48.592L48.2855 26.3215H46.1248L45.8004 27.3961H47.691L46.2595 29.3927C46.1592 29.5393 46.0693 29.5912 45.9695 29.6325C45.8692 29.6829 45.7376 29.742 45.5854 29.742H45.0609L44.7005 30.919H46.0724C46.7855 30.919 47.2067 30.5976 47.5177 30.1759L48.4994 28.8451L48.7102 30.1964C48.7549 30.4495 48.9386 30.5976 49.0629 30.6552C49.2002 30.7234 49.3422 30.8405 49.5426 30.858C49.7576 30.8671 49.913 30.8743 50.0163 30.8743H50.6903L51.0951 29.5571H50.8292C50.6766 29.5571 50.4137 29.5317 50.369 29.4844C50.3242 29.4268 50.3242 29.3381 50.3001 29.2032L50.0863 27.8489H49.2106L49.5947 27.3961H51.7512L52.0829 26.3215H50.0863L50.3973 25.3386H52.3878L52.757 24.1264H46.8226L46.4595 25.3386ZM28.4491 29.5023L28.9468 27.8623H30.9923L31.3661 26.6426H29.3186L29.6312 25.6331H31.632L32.0027 24.452H26.9965L26.6334 25.6331H27.7708L27.4674 26.6426H26.327L25.949 27.8832H27.086L26.4226 30.0529C26.3331 30.3401 26.4647 30.4496 26.5481 30.583C26.6334 30.713 26.7199 30.799 26.9142 30.8478C27.1147 30.8922 27.252 30.9187 27.4387 30.9187H29.7448L30.1557 29.5675L29.1335 29.7065C28.9361 29.7065 28.3894 29.683 28.4491 29.5023ZM28.6837 21.6515L28.1653 22.5795C28.0544 22.7822 27.9545 22.908 27.8646 22.966C27.7854 23.0149 27.6286 23.0353 27.4013 23.0353H27.1308L26.7693 24.2225H27.6676C28.0995 24.2225 28.4312 24.0656 28.5896 23.9872C28.7598 23.897 28.8046 23.9485 28.9362 23.8227L29.2395 23.5624H32.0445L32.4168 22.3264H30.3635L30.722 21.6515H28.6837ZM32.8247 29.5261C32.7769 29.4579 32.8113 29.3378 32.8844 29.0877L33.6511 26.5743H36.3784C36.7759 26.5686 37.0628 26.5641 37.2495 26.5508C37.4499 26.53 37.668 26.4591 37.9056 26.3318C38.1508 26.1984 38.2763 26.0579 38.3823 25.8964C38.5005 25.7354 38.6902 25.383 38.8532 24.8396L39.8169 21.659L36.9867 21.6753C36.9867 21.6753 36.1152 21.8026 35.7315 21.9431C35.3443 22.1 34.7911 22.5381 34.7911 22.5381L35.0467 21.6662H33.2983L30.8507 29.7065C30.7638 30.0187 30.7057 30.2453 30.6923 30.3814C30.6877 30.528 30.879 30.6731 31.0029 30.7826C31.1495 30.8921 31.366 30.8743 31.5737 30.8921C31.7922 30.9084 32.1028 30.9187 32.5317 30.9187H33.8752L34.2877 29.5394L33.0849 29.6519C32.9563 29.6519 32.8634 29.5837 32.8247 29.5261ZM34.1457 24.8768H37.0104L36.8283 25.4421C36.8026 25.4554 36.7414 25.4141 36.4499 25.4482H33.9694L34.1457 24.8768ZM34.7196 22.9806H37.6083L37.4006 23.6616C37.4006 23.6616 36.039 23.6483 35.821 23.6881C34.8615 23.8525 34.301 24.3603 34.301 24.3603L34.7196 22.9806ZM36.8924 27.3353C36.8687 27.4198 36.8312 27.4714 36.7788 27.51C36.7206 27.5471 36.6265 27.5604 36.4861 27.5604H36.0779L36.102 26.8719H34.4042L34.3353 30.2379C34.3326 30.4807 34.3564 30.6213 34.5358 30.7339C34.7152 30.8745 35.268 30.8923 36.0121 30.8923H37.076L37.4601 29.6323L36.5339 29.6827L36.226 29.7006C36.1839 29.6827 36.1437 29.6664 36.0989 29.6221C36.0599 29.5838 35.9941 29.6073 36.0048 29.3644L36.0121 28.5016L36.9834 28.4619C37.5079 28.4619 37.7321 28.2929 37.9234 28.1318C38.1059 27.9776 38.1656 27.8003 38.2344 27.5604L38.3974 26.7965H37.0626L36.8924 27.3353Z"
      fill="#FEFEFE"
    />
</g>
<defs>
<clipPath id="clip0_1895_7">
<rect width="63" height="39" fill="white" />
</clipPath>
</defs>
</svg>
