<svg width="127" height="41" viewBox="0 0 127 41" fill="none" xmlns="http://www.w3.org/2000/svg">
<g clip-path="url(#clip0_1895_15)">
<path d="M55.034 40.4088H44.7461L51.1809 0.719727H61.4682L55.034 40.4088Z" fill="#00579F" />
<path
      d="M92.3277 1.68972C90.2984 0.88667 87.0799 0 83.1002 0C72.9406 0 65.7863 5.40419 65.7424 13.1306C65.658 18.831 70.8647 21.9972 74.7589 23.898C78.7391 25.8402 80.0921 27.1079 80.0921 28.8392C80.0516 31.4981 76.8758 32.7237 73.9139 32.7237C69.8065 32.7237 67.6057 32.0918 64.2611 30.6125L62.9064 29.9784L61.4668 38.8877C63.8797 39.9843 68.3252 40.9574 72.9406 41C83.7354 41 90.7631 35.6794 90.8464 27.4458C90.8875 22.9277 88.1381 19.4657 82.2108 16.6368C78.6125 14.8208 76.4089 13.5963 76.4089 11.7383C76.4511 10.0491 78.2727 8.31897 82.3346 8.31897C85.6791 8.23423 88.1364 9.03616 89.998 9.83866L90.9285 10.2601L92.3277 1.68972Z"
      fill="#00579F"
    />
<path
      d="M106.001 26.3484C106.848 24.0683 110.108 15.2437 110.108 15.2437C110.066 15.3284 110.954 12.9215 111.462 11.4439L112.181 14.8638C112.181 14.8638 114.129 24.364 114.552 26.3484C112.944 26.3484 108.033 26.3484 106.001 26.3484ZM118.7 0.719727H110.742C108.288 0.719727 106.424 1.43692 105.365 4.01275L90.084 40.4083H100.879C100.879 40.4083 102.656 35.5097 103.038 34.4547C104.222 34.4547 114.723 34.4547 116.247 34.4547C116.542 35.8481 117.474 40.4083 117.474 40.4083H127L118.7 0.719727Z"
      fill="#00579F"
    />
<path
      d="M36.1518 0.719727L26.0766 27.7839L24.9756 22.295C23.1129 15.9615 17.2711 9.08023 10.752 5.6587L19.9805 40.3667H30.8597L47.0304 0.719727H36.1518Z"
      fill="#00579F"
    />
<path
      d="M16.7215 0.719727H0.169336L0 1.52166C12.9118 4.81524 21.463 12.7543 24.9763 22.2966L21.378 4.05596C20.7856 1.5211 18.9651 0.803343 16.7215 0.719727Z"
      fill="#FAA61A"
    />
</g>
<defs>
<clipPath id="clip0_1895_15">
<rect width="127" height="41" fill="white" />
</clipPath>
</defs>
</svg>
